<svg width="400" height="220" viewBox="0 0 400 220" fill="none" xmlns="http://www.w3.org/2000/svg">
<g clip-path="url(#clip0_106_1285)">
<circle cx="200" cy="154" r="154" fill="url(#paint0_linear_106_1285)"/>
<path fill-rule="evenodd" clip-rule="evenodd" d="M203.876 61.0221C203.097 61.1285 202.452 62.3366 202.452 63.6903C202.452 64.0304 202.377 64.608 202.286 64.9737C202.195 65.3394 202.072 66.1082 202.014 66.6822C201.916 67.6402 201.704 69.0503 201.247 71.784C201.151 72.358 201.054 73.0885 201.031 73.4073C201.008 73.7262 200.933 74.2741 200.864 74.6248C200.795 74.9756 200.681 75.706 200.61 76.2481C200.54 76.7902 200.403 77.7294 200.306 78.3352C199.922 80.7324 199.976 81.403 200.605 82.0379C200.972 82.4083 201.972 82.671 203.039 82.6774L204.028 82.6834L204.409 82.2496C204.803 81.8014 205.045 81.2685 205.205 80.5C205.256 80.2557 205.355 79.9974 205.426 79.9261C205.497 79.8546 205.555 79.6632 205.555 79.5005C205.556 79.338 205.633 79.0554 205.728 78.8728C205.822 78.69 205.899 78.4631 205.899 78.3685C205.899 78.2738 205.968 78.0319 206.053 77.8309C206.292 77.2602 206.485 76.6934 206.6 76.2152C206.659 75.9739 206.751 75.6869 206.805 75.5775C206.86 75.468 207.069 74.8306 207.27 74.161C207.472 73.4914 207.705 72.7609 207.789 72.5377C207.873 72.3145 208.188 71.3492 208.488 70.3926C208.789 69.436 209.105 68.4889 209.191 68.288C209.277 68.0871 209.347 67.7986 209.347 67.647C209.347 67.4955 209.417 67.2686 209.503 67.1429C209.59 67.0171 209.687 66.7576 209.72 66.5662C209.753 66.3749 209.891 65.9314 210.027 65.5807C210.611 64.0679 210.601 63.1815 209.993 62.5313C209.794 62.3181 209.502 62.107 209.345 62.0625C208.023 61.6878 206.863 61.4065 206.64 61.4065C206.493 61.4065 206.343 61.3588 206.308 61.3006C206.201 61.1266 204.52 60.934 203.876 61.0221ZM235.089 80.0371C234.672 80.2189 234.405 80.4588 233.977 81.0355C233.839 81.2208 233.516 81.5991 233.258 81.8761C233.001 82.1532 232.79 82.4072 232.79 82.4407C232.79 82.4741 232.648 82.6514 232.474 82.8346C232.3 83.0176 232.003 83.3647 231.814 83.6055C231.624 83.8463 231.322 84.2069 231.142 84.407C230.962 84.6069 230.523 85.1357 230.167 85.5821C229.364 86.5882 229.16 86.8293 228.653 87.372C228.432 87.609 227.967 88.1603 227.619 88.5969C227.271 89.0337 226.754 89.6589 226.47 89.9864C226.185 90.3137 225.72 90.8617 225.436 91.204C225.151 91.5464 224.828 91.9071 224.717 92.0057C224.607 92.1042 224.516 92.2304 224.516 92.286C224.516 92.3732 224.201 92.741 223.338 93.6585C223.228 93.7762 223.137 93.9248 223.137 93.9885C223.137 94.0523 223.087 94.1045 223.025 94.1045C222.833 94.1045 222.448 95.0525 222.448 95.5234C222.448 96.119 222.706 96.5928 223.413 97.2964C224.239 98.1178 224.531 98.2787 225.195 98.2787C225.755 98.2787 226.585 97.926 226.585 97.6875C226.585 97.6301 226.662 97.583 226.757 97.583C226.852 97.583 226.93 97.5439 226.93 97.496C226.931 97.4481 227.319 97.0967 227.792 96.7149C228.266 96.333 228.653 95.9809 228.653 95.9322C228.653 95.8835 228.703 95.8437 228.765 95.8437C228.826 95.8437 229.167 95.5697 229.523 95.235C229.879 94.9002 230.255 94.5794 230.36 94.5221C230.464 94.4648 230.633 94.3344 230.736 94.2323C231.104 93.8664 232.483 92.6517 232.724 92.4812C232.972 92.306 233.145 92.1589 234.227 91.2057C235.499 90.0857 235.689 89.9303 235.789 89.9303C235.846 89.9303 235.893 89.8887 235.893 89.8381C235.893 89.7875 236.139 89.5567 236.44 89.3251C237.053 88.8537 237.352 88.5981 238.017 87.979C238.268 87.7449 238.733 87.3467 239.051 87.0942C240.631 85.8376 241.008 85.0714 240.539 84.0723C240.314 83.594 237.1 80.3465 236.569 80.0613C236.1 79.8092 235.628 79.8015 235.089 80.0371ZM174.699 82.8074C174.382 82.8961 174.013 82.9698 173.878 82.971C173.744 82.9722 173.485 83.0512 173.304 83.1465C173.123 83.2417 172.892 83.3199 172.791 83.3204C172.543 83.3213 170.594 84.3332 170.434 84.5442C170.364 84.6368 170.266 84.7125 170.217 84.7125C170.115 84.7125 167.976 86.8473 167.976 86.9489C167.976 86.9852 167.791 87.2125 167.565 87.4539C167.34 87.6953 167.07 88.0382 166.966 88.2158C166.862 88.3935 166.736 88.5389 166.687 88.5389C166.637 88.5389 166.597 88.6127 166.597 88.7032C166.597 88.7935 166.555 88.8847 166.504 88.9061C166.331 88.9781 165.561 90.1566 165.103 91.0509C164.945 91.3592 164.79 91.6376 164.758 91.6695C164.7 91.728 164.313 92.5429 163.987 93.2928C163.89 93.516 163.739 93.8464 163.652 94.0269C163.565 94.2074 163.494 94.4342 163.494 94.5308C163.494 94.6274 163.423 94.8449 163.336 95.0142C163.25 95.1835 163.099 95.6089 163.001 95.9597C162.903 96.3104 162.741 96.8773 162.641 97.2195C162.541 97.5615 162.46 98.0121 162.46 98.2207C162.46 98.4293 162.386 98.8538 162.297 99.164C162.042 100.051 161.882 102.003 161.767 105.642C161.708 107.491 161.629 109.735 161.592 110.627C161.554 111.52 161.501 113.451 161.474 114.918C161.446 116.387 161.349 118.079 161.257 118.686C161.165 119.292 161.035 120.153 160.968 120.599C160.736 122.143 160.629 122.709 160.51 123.023C160.445 123.197 160.391 123.464 160.391 123.617C160.391 123.771 160.32 124.067 160.233 124.277C160.145 124.486 159.982 124.97 159.868 125.353C159.755 125.736 159.542 126.324 159.395 126.661C159.247 126.998 159.127 127.305 159.127 127.344C159.127 127.447 157.89 129.931 157.636 130.339C157.517 130.53 157.283 130.939 157.117 131.248C156.569 132.267 154.126 135.823 153.72 136.194C153.685 136.226 153.504 136.461 153.317 136.716C153.131 136.971 152.927 137.239 152.864 137.312C152.801 137.384 152.439 137.822 152.059 138.284C151.68 138.747 151.228 139.276 151.054 139.461C150.88 139.646 150.738 139.819 150.738 139.847C150.738 139.875 150.57 140.071 150.364 140.284C150.159 140.497 149.726 140.982 149.402 141.361C149.078 141.74 148.392 142.487 147.879 143.022C147.365 143.556 146.945 144.039 146.945 144.094C146.945 144.15 146.868 144.195 146.773 144.195C146.678 144.195 146.601 144.24 146.601 144.294C146.601 144.349 145.87 145.145 144.978 146.063C143.078 148.017 142.119 149.096 142.119 149.281C142.119 149.353 142.078 149.413 142.027 149.413C141.803 149.413 140.577 152.165 140.387 153.096C140.332 153.368 140.222 153.707 140.144 153.85C140.042 154.036 140.001 154.911 140 156.95C139.999 159.262 140.037 159.963 140.204 160.718C140.601 162.505 141.107 164.104 141.698 165.439C141.803 165.676 141.889 165.924 141.889 165.99C141.889 166.056 141.941 166.11 142.004 166.11C142.067 166.11 142.119 166.169 142.119 166.242C142.119 166.377 142.587 167.396 142.697 167.501C142.73 167.533 142.885 167.803 143.042 168.102C143.53 169.036 144.324 170.284 144.43 170.284C144.486 170.284 144.532 170.337 144.532 170.403C144.532 170.56 145.36 171.675 145.476 171.675C145.526 171.675 145.566 171.727 145.566 171.791C145.566 171.855 145.657 172.005 145.768 172.124C145.878 172.243 146.46 172.883 147.06 173.546C147.661 174.21 148.509 175.065 148.945 175.446C149.382 175.827 149.824 176.221 149.929 176.321C150.369 176.738 152.231 178.093 152.576 178.247C152.671 178.289 152.957 178.458 153.21 178.623C154.044 179.163 154.126 179.213 154.3 179.279C154.395 179.315 154.55 179.393 154.645 179.453C154.74 179.512 154.936 179.612 155.082 179.675C155.227 179.739 155.641 179.925 156.001 180.09C157.062 180.576 157.093 180.589 157.633 180.779C159.043 181.274 160.467 181.657 161.9 181.925C163.227 182.174 166.444 182.181 167.239 181.938C167.549 181.843 167.926 181.765 168.075 181.764C168.385 181.763 169.369 181.466 169.852 181.228C170.031 181.139 170.228 181.067 170.289 181.067C170.48 181.067 172.113 180.218 172.113 180.118C172.113 180.066 172.166 180.024 172.231 180.024C172.386 180.024 173.492 179.189 173.492 179.071C173.492 179.021 173.569 178.98 173.664 178.98C173.759 178.98 173.837 178.926 173.837 178.861C173.837 178.595 174.195 178.636 174.944 178.985C175.378 179.187 175.81 179.4 175.905 179.457C176 179.514 176.142 179.587 176.221 179.619C176.549 179.749 176.684 179.82 177.342 180.203C177.721 180.424 178.173 180.669 178.347 180.746C178.521 180.823 178.663 180.927 178.663 180.977C178.663 181.027 178.72 181.067 178.79 181.067C179.067 181.067 183.145 183.913 183.145 184.106C183.145 184.157 183.218 184.198 183.308 184.198C183.397 184.198 183.488 184.237 183.509 184.285C183.53 184.333 183.804 184.58 184.117 184.834C184.431 185.089 184.833 185.441 185.012 185.617C185.19 185.793 185.36 185.937 185.388 185.937C185.547 185.937 190.385 190.824 190.385 190.984C190.385 191.014 190.58 191.235 190.818 191.474C191.056 191.713 191.532 192.248 191.875 192.662C192.704 193.664 193.559 194.488 193.869 194.586C194.007 194.629 194.157 194.723 194.202 194.794C194.253 194.875 194.847 194.938 195.789 194.962L197.295 195L199.155 194.044C200.178 193.519 201.946 192.618 203.084 192.043C204.221 191.467 205.169 190.954 205.19 190.902C205.212 190.85 205.322 190.807 205.435 190.807C205.548 190.807 205.701 190.734 205.775 190.645C205.848 190.555 206.048 190.447 206.219 190.404C206.389 190.36 206.555 190.29 206.588 190.247C206.62 190.204 207.008 189.99 207.451 189.771C207.893 189.552 208.607 189.139 209.037 188.853C210.248 188.048 210.617 187.391 210.696 185.902C210.732 185.21 210.701 184.931 210.562 184.717C210.463 184.564 210.381 184.365 210.381 184.276C210.381 184.186 210.227 183.937 210.038 183.721C209.85 183.505 209.694 183.289 209.693 183.241C209.692 183.194 209.614 183.154 209.519 183.154C209.424 183.154 209.347 183.113 209.347 183.063C209.347 182.949 208.631 182.409 206.933 181.24C206.207 180.74 205.586 180.3 205.554 180.264C205.417 180.106 204.749 179.676 204.64 179.676C204.574 179.676 204.52 179.63 204.52 179.574C204.52 179.518 204.365 179.407 204.175 179.328C203.986 179.249 203.831 179.138 203.831 179.082C203.831 179.026 203.753 178.98 203.658 178.98C203.563 178.98 203.486 178.927 203.486 178.861C203.486 178.796 203.369 178.692 203.227 178.63C202.892 178.483 202.528 178.252 202.438 178.129C202.4 178.075 202.261 177.971 202.13 177.897C201.999 177.823 201.281 177.346 200.534 176.836C199.139 175.884 198.839 175.688 198.549 175.543C198.375 175.455 198.061 175.208 197.781 174.939C197.66 174.823 197.65 174.741 197.742 174.629C197.974 174.347 198.315 172.595 198.315 171.682C198.315 171.174 198.239 170.561 198.142 170.284C198.047 170.013 197.97 169.682 197.97 169.548C197.97 169.23 197.206 167.695 196.86 167.319C196.712 167.157 196.591 166.997 196.591 166.963C196.591 166.842 195.117 165.414 194.993 165.414C194.923 165.414 194.867 165.367 194.867 165.31C194.867 165.178 192.964 164.023 192.746 164.023C192.472 164.023 192.416 163.785 192.643 163.577C192.945 163.298 195.063 162.283 195.342 162.283C195.409 162.283 195.627 162.214 195.826 162.129C196.447 161.865 197.358 161.588 197.605 161.588C197.735 161.588 197.87 161.54 197.906 161.483C197.941 161.425 198.241 161.342 198.573 161.299C198.905 161.256 199.435 161.151 199.751 161.065C200.386 160.892 202.287 160.617 204.233 160.415C204.928 160.344 208.186 160.242 211.473 160.189C214.76 160.137 217.836 160.041 218.311 159.976C218.785 159.912 219.502 159.856 219.904 159.853C220.83 159.847 223.661 159.34 224.861 158.965C226.778 158.366 227.056 158.263 228.138 157.745C228.518 157.562 228.89 157.413 228.963 157.413C229.036 157.413 229.166 157.348 229.25 157.268C229.335 157.189 229.61 157.021 229.862 156.897C230.819 156.422 233.48 154.568 233.48 154.375C233.48 154.324 233.531 154.283 233.593 154.283C233.874 154.283 236.583 151.541 236.583 151.256C236.583 151.199 236.621 151.152 236.669 151.151C236.748 151.151 236.955 150.84 237.362 150.109C238.01 148.943 238.656 145.931 238.647 144.121C238.645 143.684 238.569 142.908 238.477 142.398C238.386 141.888 238.311 141.288 238.31 141.064C238.308 140.089 237.13 135.622 236.399 133.817C236.321 133.626 236.147 133.183 236.012 132.832C235.877 132.481 235.71 132.064 235.641 131.904C235.572 131.745 235.451 131.458 235.371 131.267C235.212 130.883 232.688 125.759 232.501 125.438C232.436 125.328 232.242 125.016 232.07 124.747C231.897 124.477 231.756 124.224 231.756 124.184C231.756 124.144 231.611 123.895 231.435 123.631C231.258 123.366 231.076 123.072 231.031 122.976C230.986 122.88 230.847 122.646 230.722 122.454C230.597 122.263 230.434 121.989 230.36 121.846C230.286 121.702 230.182 121.585 230.129 121.585C230.076 121.585 230.032 121.531 230.032 121.465C230.032 121.296 228.856 119.498 228.745 119.498C228.694 119.498 228.653 119.443 228.653 119.377C228.653 119.24 228.181 118.532 228.05 118.473C228.003 118.452 227.964 118.361 227.964 118.271C227.964 118.18 227.925 118.106 227.878 118.106C227.83 118.106 227.644 117.871 227.465 117.584C227.285 117.297 227.091 117.063 227.034 117.063C226.977 117.063 226.929 117.008 226.929 116.941C226.929 116.806 225.265 114.529 225.017 114.325C224.931 114.254 224.861 114.137 224.861 114.064C224.861 113.991 224.818 113.932 224.766 113.932C224.714 113.932 224.446 113.619 224.171 113.236C223.897 112.854 223.629 112.541 223.577 112.541C223.525 112.541 223.482 112.467 223.482 112.376C223.482 112.286 223.437 112.195 223.383 112.173C223.329 112.152 222.982 111.77 222.612 111.323C222.243 110.877 221.822 110.397 221.677 110.256C221.532 110.116 221.413 109.95 221.413 109.889C221.413 109.827 221.374 109.76 221.326 109.738C221.277 109.717 220.618 109.021 219.86 108.192C216.882 104.933 212.703 100.883 209.634 98.279C208.8 97.5717 208.682 97.4745 207.795 96.7741C207.353 96.4249 206.965 96.1083 206.933 96.0708C206.756 95.859 204.407 94.1045 204.302 94.1045C204.232 94.1045 204.175 94.0566 204.175 93.998C204.175 93.9394 203.982 93.7731 203.744 93.6283C203.507 93.4834 203.02 93.1401 202.661 92.8651C202.303 92.5902 201.958 92.3652 201.895 92.3652C201.833 92.3652 201.764 92.3261 201.743 92.2783C201.687 92.1513 200.986 91.6695 200.857 91.6695C200.796 91.6695 200.73 91.6304 200.709 91.5826C200.653 91.4556 199.952 90.9738 199.823 90.9738C199.762 90.9738 199.695 90.9343 199.674 90.8859C199.653 90.8377 198.912 90.3659 198.027 89.8376C197.142 89.3093 196.341 88.827 196.246 88.7658C196.151 88.7044 195.97 88.6009 195.844 88.5357C195.717 88.4706 195.304 88.2404 194.924 88.0243C193.875 87.4264 190.474 85.756 190.306 85.756C190.267 85.756 189.907 85.5995 189.505 85.4082C189.104 85.2169 188.675 85.0603 188.553 85.0603C188.43 85.0603 188.303 85.0155 188.269 84.9605C188.235 84.9057 187.366 84.5874 186.337 84.2533C183.798 83.4287 182.737 83.1467 181.533 82.9764C181.121 82.9179 180.552 82.8164 180.269 82.7506C179.491 82.5696 175.397 82.6114 174.699 82.8074ZM181.134 89.9232C181.703 89.9836 182.323 90.0851 182.513 90.1488C182.703 90.2125 183.608 90.509 184.524 90.8077C185.441 91.1063 186.293 91.4225 186.417 91.5101C186.542 91.5977 186.712 91.6695 186.795 91.6695C186.954 91.6695 189.494 92.9226 190.672 93.5828C191.052 93.7952 191.595 94.0908 191.879 94.2396C192.163 94.3883 192.422 94.5379 192.454 94.572C192.485 94.6061 192.893 94.867 193.36 95.1519C193.826 95.4367 194.343 95.7606 194.509 95.8714C194.674 95.9823 194.887 96.109 194.982 96.1529C195.077 96.1967 195.18 96.2625 195.212 96.2991C195.348 96.4571 196.017 96.8873 196.126 96.8873C196.192 96.8873 196.246 96.9331 196.246 96.9892C196.246 97.0452 196.401 97.1559 196.591 97.2351C196.78 97.3143 196.935 97.4251 196.935 97.4811C196.935 97.5372 196.987 97.583 197.05 97.583C197.114 97.583 197.256 97.6625 197.366 97.7597C197.477 97.8569 198.421 98.5708 199.463 99.3461C200.506 100.121 201.515 100.903 201.704 101.082C201.894 101.262 202.08 101.409 202.118 101.409C202.156 101.409 202.291 101.501 202.419 101.612C202.635 101.801 202.902 102.028 204.278 103.189C204.569 103.435 204.911 103.724 205.037 103.832C205.341 104.093 207.361 105.909 207.973 106.472C208.659 107.103 214.522 113.017 214.836 113.394C214.979 113.566 215.367 114.009 215.698 114.378C216.029 114.748 216.584 115.379 216.931 115.781C217.279 116.184 217.615 116.571 217.679 116.643C217.742 116.714 218.027 117.059 218.311 117.409C218.595 117.758 218.914 118.15 219.019 118.278C219.124 118.407 219.399 118.747 219.629 119.034C219.86 119.321 220.114 119.636 220.193 119.735C220.272 119.834 220.612 120.278 220.947 120.721C221.283 121.164 221.602 121.544 221.658 121.565C221.713 121.587 221.758 121.649 221.758 121.704C221.758 121.789 222.997 123.549 223.364 123.986C223.429 124.063 223.482 124.156 223.482 124.193C223.482 124.291 223.983 124.998 224.085 125.044C224.133 125.065 224.171 125.156 224.171 125.247C224.171 125.337 224.215 125.411 224.268 125.411C224.321 125.411 224.425 125.529 224.499 125.672C224.573 125.815 224.736 126.089 224.861 126.281C224.986 126.472 225.149 126.746 225.223 126.889C225.297 127.033 225.401 127.15 225.454 127.15C225.507 127.15 225.55 127.208 225.55 127.278C225.55 127.349 225.701 127.631 225.884 127.905C226.067 128.18 226.252 128.513 226.294 128.647C226.336 128.78 226.419 128.89 226.478 128.89C226.536 128.89 226.585 128.937 226.585 128.996C226.585 129.054 226.805 129.485 227.074 129.953C227.939 131.453 229.72 135.214 230.141 136.426C230.219 136.65 230.327 136.989 230.381 137.18C230.436 137.371 230.589 137.893 230.722 138.34C231.057 139.465 231.19 140.413 231.257 142.151C231.296 143.141 231.273 143.685 231.191 143.768C231.123 143.837 231.067 144.041 231.067 144.222C231.067 144.595 230.678 145.417 230.168 146.122C229.823 146.599 228.885 147.326 228.613 147.326C228.534 147.326 228.42 147.375 228.36 147.435C228.189 147.606 226.597 147.905 225.86 147.905C224.834 147.905 222.474 147.518 221.471 147.185C221.281 147.122 220.971 147.028 220.781 146.976C220.345 146.856 218.937 146.331 218.483 146.119C218.293 146.03 217.724 145.762 217.219 145.524C216.713 145.286 216.144 145.019 215.955 144.931C215.765 144.843 215.532 144.724 215.438 144.665C215.343 144.607 215.188 144.53 215.093 144.493C214.998 144.456 214.61 144.245 214.231 144.024C213.852 143.802 213.309 143.502 213.024 143.357C212.74 143.212 212.481 143.066 212.45 143.032C212.418 142.998 212.014 142.737 211.551 142.452C211.088 142.167 210.571 141.843 210.402 141.732C210.232 141.622 210.016 141.495 209.921 141.451C209.827 141.407 209.723 141.341 209.692 141.305C209.555 141.147 208.886 140.717 208.777 140.717C208.711 140.717 208.657 140.667 208.657 140.607C208.657 140.547 208.533 140.429 208.381 140.346C207.84 140.05 206.589 139.159 206.589 139.069C206.589 139.018 206.538 138.977 206.475 138.977C206.373 138.977 205.107 138.06 204.799 137.763C204.731 137.697 204.486 137.513 204.254 137.354C204.022 137.195 203.832 137.025 203.831 136.977C203.831 136.929 203.753 136.89 203.658 136.89C203.563 136.89 203.486 136.847 203.486 136.794C203.486 136.741 203.266 136.535 202.997 136.337C202.729 136.139 202.354 135.839 202.164 135.67C201.975 135.501 201.644 135.224 201.43 135.054C201.216 134.884 200.983 134.693 200.912 134.629C200.841 134.565 200.572 134.331 200.315 134.107C200.058 133.884 199.517 133.415 199.113 133.064C198.043 132.134 197.054 131.227 196.562 130.723C196.325 130.48 196.08 130.281 196.016 130.281C195.953 130.281 195.901 130.203 195.901 130.107C195.901 130.011 195.853 129.933 195.794 129.933C195.59 129.933 190.109 124.281 188.879 122.802C188.666 122.547 188.375 122.223 188.232 122.083C188.089 121.943 187.972 121.797 187.972 121.759C187.972 121.721 187.855 121.575 187.712 121.434C187.569 121.294 187.152 120.814 186.784 120.367C186.417 119.921 186.002 119.425 185.861 119.266C185.721 119.106 185.351 118.637 185.04 118.222C184.728 117.808 184.42 117.413 184.355 117.344C184.29 117.276 184.108 117.028 183.95 116.794C183.792 116.56 183.624 116.368 183.576 116.368C183.529 116.367 183.49 116.289 183.49 116.193C183.49 116.097 183.443 116.019 183.386 116.019C183.328 116.019 183.134 115.784 182.955 115.498C182.775 115.211 182.589 114.976 182.542 114.976C182.494 114.976 182.456 114.921 182.456 114.855C182.456 114.788 182.401 114.671 182.335 114.594C182.269 114.517 181.956 114.089 181.641 113.642C181.325 113.196 180.991 112.739 180.899 112.626C180.807 112.514 180.732 112.392 180.732 112.354C180.732 112.317 180.344 111.702 179.87 110.986C179.396 110.271 179.008 109.628 179.008 109.558C179.008 109.487 178.969 109.412 178.922 109.391C178.821 109.345 177.974 107.964 177.974 107.844C177.974 107.799 177.819 107.53 177.629 107.247C177.439 106.963 177.284 106.702 177.284 106.666C177.284 106.541 176.438 104.875 176.345 104.817C176.292 104.785 176.25 104.663 176.25 104.547C176.25 104.431 176.172 104.272 176.078 104.192C175.983 104.113 175.905 103.973 175.905 103.882C175.905 103.79 175.75 103.4 175.56 103.014C175.371 102.629 175.216 102.217 175.216 102.1C175.216 101.983 175.171 101.859 175.116 101.825C175.062 101.791 174.951 101.526 174.871 101.235C174.79 100.945 174.68 100.68 174.625 100.646C174.571 100.612 174.526 100.477 174.526 100.346C174.526 100.214 174.443 99.8391 174.341 99.5117C173.992 98.3841 173.932 98.1491 173.801 97.3744C173.639 96.4173 173.642 94.2501 173.808 93.4611C173.875 93.1391 174.038 92.6956 174.17 92.4755C174.301 92.2554 174.443 91.9971 174.484 91.9014C174.601 91.6279 175.594 90.626 175.748 90.626C175.824 90.626 175.903 90.5869 175.924 90.539C176.015 90.3334 176.951 89.9939 177.801 89.858C178.724 89.7105 179.22 89.7203 181.134 89.9232ZM169.355 105.64C169.355 105.839 170.505 108.45 170.863 109.062C170.918 109.158 171.011 109.34 171.069 109.468C171.431 110.271 171.591 110.586 171.953 111.207C172.175 111.59 172.417 112.046 172.49 112.222C172.563 112.397 172.663 112.541 172.713 112.541C172.762 112.541 172.802 112.589 172.802 112.648C172.802 112.791 173.636 114.211 173.749 114.26C173.797 114.282 173.837 114.343 173.837 114.397C173.837 114.486 174.381 115.426 174.898 116.23C175.008 116.401 175.159 116.658 175.233 116.802C175.307 116.945 175.411 117.063 175.464 117.063C175.517 117.063 175.56 117.117 175.56 117.183C175.56 117.321 176.033 118.028 176.164 118.087C176.211 118.108 176.25 118.175 176.25 118.237C176.25 118.354 176.656 118.966 176.931 119.263C177.022 119.36 177.229 119.65 177.391 119.907C177.898 120.71 178.818 121.933 178.915 121.933C178.966 121.933 179.008 122.011 179.008 122.107C179.008 122.202 179.047 122.281 179.094 122.281C179.142 122.282 179.31 122.474 179.468 122.708C179.626 122.942 179.807 123.19 179.87 123.259C179.933 123.328 180.317 123.801 180.722 124.311C181.128 124.82 181.529 125.295 181.613 125.366C181.697 125.437 181.766 125.554 181.766 125.627C181.766 125.699 181.807 125.759 181.857 125.759C181.908 125.759 182.138 126.007 182.37 126.31C182.601 126.613 182.975 127.069 183.202 127.324C183.428 127.579 183.908 128.127 184.268 128.542C185.92 130.441 189.566 134.157 191.567 135.98C192.213 136.569 192.855 137.171 192.994 137.318C193.133 137.465 193.278 137.586 193.316 137.586C193.353 137.586 193.498 137.709 193.637 137.859C193.897 138.139 194.515 138.685 195.493 139.499C195.799 139.754 196.114 140.026 196.193 140.103C196.271 140.181 196.69 140.517 197.124 140.851C197.558 141.186 197.976 141.522 198.053 141.598C198.13 141.675 198.376 141.851 198.599 141.99C198.822 142.129 199.004 142.291 199.004 142.349C199.004 142.408 199.077 142.456 199.167 142.456C199.256 142.456 199.347 142.502 199.368 142.559C199.422 142.703 200.476 143.499 200.614 143.499C200.677 143.499 200.728 143.549 200.728 143.61C200.728 143.672 200.961 143.859 201.245 144.027C201.529 144.195 201.762 144.38 201.762 144.438C201.762 144.496 201.819 144.543 201.889 144.543C201.959 144.543 202.212 144.699 202.452 144.891C202.691 145.082 202.94 145.239 203.004 145.239C203.069 145.239 203.139 145.278 203.16 145.326C203.218 145.458 203.92 145.934 204.056 145.934C204.122 145.934 204.175 145.983 204.175 146.042C204.175 146.102 204.278 146.184 204.405 146.224C204.531 146.264 204.701 146.359 204.783 146.435C204.865 146.51 205.033 146.635 205.157 146.711C205.357 146.835 206.403 147.498 207.258 148.044C207.427 148.152 207.798 148.361 208.083 148.508C208.367 148.655 208.627 148.811 208.66 148.855C208.693 148.899 208.848 148.992 209.004 149.063C209.161 149.133 209.6 149.367 209.979 149.582C211.005 150.163 214.024 151.672 214.748 151.965C215.592 152.307 216.127 152.58 216.127 152.669C216.127 152.825 214.567 152.891 210.853 152.896C208.729 152.898 206.474 152.95 205.842 153.011C205.21 153.073 204.046 153.17 203.256 153.229C201.872 153.331 200.99 153.448 199.521 153.726C199.142 153.797 198.573 153.896 198.257 153.945C197.319 154.09 195.792 154.465 194.924 154.764C194.735 154.829 194.424 154.926 194.235 154.978C193.815 155.095 193.209 155.312 192.724 155.519C192.524 155.604 192.3 155.674 192.224 155.674C192.149 155.674 191.95 155.749 191.782 155.84C191.614 155.932 191.167 156.145 190.787 156.315C189.512 156.887 187.081 158.159 186.937 158.33C186.906 158.368 186.708 158.49 186.497 158.602C186.064 158.831 185.618 158.853 184.875 158.68C184.594 158.615 183.976 158.512 183.501 158.451C183.027 158.39 182.588 158.289 182.524 158.225C182.461 158.161 182.301 158.109 182.168 158.109C181.925 158.109 179.825 157.429 179.405 157.214C179.281 157.151 178.612 156.82 177.916 156.477C177.221 156.135 176.626 155.828 176.595 155.794C176.563 155.76 176.33 155.63 176.078 155.505C175.825 155.379 175.429 155.131 175.199 154.954C174.969 154.776 174.751 154.631 174.715 154.631C174.578 154.631 172.168 152.741 171.748 152.304C171.506 152.053 171.284 151.848 171.255 151.848C171.054 151.848 168.654 149.174 167.778 147.974C167.448 147.522 167.125 147.089 167.06 147.012C166.995 146.935 166.941 146.822 166.941 146.761C166.941 146.699 166.903 146.632 166.855 146.611C166.78 146.577 165.7 144.797 165.459 144.311C165.412 144.215 165.267 143.928 165.138 143.673C165.008 143.418 164.81 143.001 164.698 142.746C164.586 142.491 164.449 142.19 164.394 142.078C164.272 141.827 163.953 140.898 163.828 140.427C163.777 140.235 163.628 139.714 163.496 139.267C163.267 138.493 163.102 137.613 162.955 136.39C162.899 135.923 162.943 135.724 163.22 135.173C163.402 134.81 163.589 134.485 163.636 134.45C163.78 134.34 165.905 130.001 165.906 129.811C165.907 129.713 165.955 129.582 166.014 129.522C166.183 129.347 167.103 126.582 167.44 125.237C167.822 123.709 168.32 120.957 168.323 120.352C168.325 120.105 168.379 119.695 168.443 119.44C168.582 118.888 168.884 111.717 168.89 108.818C168.896 106.278 168.981 105.348 169.198 105.432C169.284 105.465 169.355 105.559 169.355 105.64ZM256.004 110.587C255.593 110.717 255.111 110.896 254.932 110.986C254.753 111.076 254.487 111.149 254.342 111.149C254.196 111.149 253.929 111.227 253.748 111.322C253.567 111.418 253.339 111.496 253.242 111.496C253.031 111.497 251.899 111.89 251.79 112C251.748 112.042 251.623 112.077 251.511 112.077C251.321 112.077 250.231 112.416 247.782 113.236C247.211 113.427 246.642 113.586 246.518 113.588C246.395 113.59 246.193 113.668 246.07 113.762C245.948 113.855 245.747 113.932 245.624 113.932C245.502 113.932 244.709 114.167 243.862 114.454C243.015 114.741 242.233 114.977 242.124 114.979C242.015 114.981 241.826 115.06 241.703 115.153C241.581 115.247 241.356 115.323 241.204 115.323C241.052 115.323 240.764 115.395 240.565 115.483C240.366 115.57 239.992 115.7 239.733 115.771C239.242 115.907 238.651 116.339 238.651 116.564C238.651 116.636 238.587 116.717 238.508 116.744C238.294 116.815 238.345 118.253 238.593 119.123C238.949 120.379 239.753 120.889 241.037 120.671C241.4 120.61 242.395 120.474 243.248 120.369C244.101 120.265 244.98 120.133 245.202 120.077C245.423 120.02 246.069 119.941 246.638 119.9C247.207 119.859 247.939 119.752 248.265 119.662C248.591 119.572 249.134 119.497 249.471 119.497C249.809 119.497 250.27 119.445 250.495 119.382C250.72 119.318 251.341 119.217 251.874 119.155C253.695 118.946 255.434 118.697 255.542 118.629C255.602 118.592 256.208 118.514 256.89 118.456C258.92 118.282 259.433 118.056 259.853 117.146C260.067 116.683 260.058 116.49 259.754 115.091C259.664 114.677 259.529 114.025 259.455 113.642C259.38 113.259 259.266 112.79 259.201 112.599C259.136 112.407 259.043 112.018 258.994 111.734C258.946 111.45 258.848 111.197 258.777 111.173C258.706 111.149 258.647 111.061 258.647 110.976C258.647 110.744 257.717 110.337 257.203 110.344C256.955 110.347 256.415 110.457 256.004 110.587ZM193.488 110.804C193.077 110.85 192.456 110.97 192.109 111.069C191.015 111.382 189.183 112.13 188.882 112.386C188.782 112.471 188.648 112.541 188.584 112.541C188.52 112.541 188.371 112.648 188.254 112.778C188.046 113.01 188.046 113.027 188.258 113.423C188.377 113.646 188.594 113.959 188.74 114.119C188.887 114.278 189.006 114.453 189.006 114.508C189.006 114.563 189.046 114.626 189.096 114.647C189.145 114.668 189.416 114.986 189.698 115.352C189.979 115.719 190.249 116.019 190.297 116.019C190.346 116.019 190.385 116.097 190.385 116.193C190.385 116.289 190.425 116.367 190.474 116.367C190.522 116.367 190.768 116.634 191.019 116.96C191.271 117.287 191.632 117.725 191.822 117.934C192.011 118.143 192.293 118.463 192.448 118.645C193.161 119.481 194.749 121.24 195.324 121.831C195.673 122.19 196.122 122.672 196.322 122.904C196.522 123.135 196.742 123.324 196.811 123.324C196.879 123.324 196.935 123.376 196.935 123.439C196.935 123.502 197.353 123.958 197.864 124.453C198.375 124.948 199.009 125.564 199.272 125.822C199.84 126.378 200.858 127.311 201.861 128.194C202.26 128.545 202.775 129.003 203.007 129.213C203.239 129.423 203.674 129.786 203.974 130.02C204.274 130.254 204.52 130.486 204.52 130.537C204.52 130.587 204.574 130.629 204.641 130.629C204.707 130.629 204.875 130.75 205.014 130.899C205.532 131.451 207.742 133.064 207.982 133.064C208.287 133.064 208.428 132.881 208.923 131.846C210.031 129.533 210.381 127.965 210.381 125.323C210.381 123.051 210.184 121.879 209.488 120.019C209.226 119.318 208.499 117.822 208.4 117.778C208.352 117.756 208.313 117.689 208.313 117.628C208.313 117.498 207.835 116.791 207.709 116.734C207.662 116.713 207.623 116.649 207.623 116.593C207.623 116.315 204.904 113.584 204.628 113.584C204.569 113.584 204.52 113.536 204.52 113.478C204.52 113.384 203.497 112.67 203.199 112.555C203.135 112.53 203.006 112.448 202.911 112.372C202.749 112.242 201.388 111.652 200.498 111.326C199.902 111.108 199.029 110.895 198.315 110.794C197.528 110.683 194.491 110.689 193.488 110.804Z" fill="#FBFBFB"/>
</g>
<defs>
<linearGradient id="paint0_linear_106_1285" x1="46" y1="196.607" x2="364.807" y2="148.246" gradientUnits="userSpaceOnUse">
<stop stop-color="#00A650"/>
<stop offset="1" stop-color="#0FDB71"/>
</linearGradient>
<clipPath id="clip0_106_1285">
<rect width="400" height="220" fill="white"/>
</clipPath>
</defs>
</svg>
