<svg width="454" height="393" viewBox="0 0 454 393" fill="none" xmlns="http://www.w3.org/2000/svg">
<path d="M99.2152 381.197C99.2152 381.197 152.617 408.711 213.647 379.705C274.677 350.698 294.492 294.481 326.164 252.25C342.753 230.135 369.889 217.814 390.594 199.22C456.785 139.756 432.906 40.3436 372.346 13.0725C319.918 -10.5449 259.348 -2.08038 184.289 37.8976C109.24 77.8857 55.1628 103.675 15.7594 183.357C-23.6441 263.029 32.8192 342.65 99.2152 381.197Z" fill="url(#paint0_linear_331_16959)"/>
<path opacity="0.8" d="M99.2152 381.197C99.2152 381.197 152.617 408.711 213.647 379.705C274.677 350.698 294.492 294.481 326.164 252.25C342.753 230.135 369.889 217.814 390.594 199.22C456.785 139.756 432.906 40.3436 372.346 13.0725C319.918 -10.5449 259.348 -2.08038 184.289 37.8976C109.24 77.8857 55.1628 103.675 15.7594 183.357C-23.6441 263.029 32.8192 342.65 99.2152 381.197Z" fill="white"/>
<path d="M410.285 370.377C410.285 370.377 384.921 316.83 390.44 315.277C395.96 313.724 407.5 322.26 407.5 322.26C407.5 322.26 373.596 232.246 382.371 225.253C391.147 218.27 407.531 253.965 407.531 253.965C407.531 253.965 390.031 198.865 392.089 177.917C394.147 156.969 416.378 177.146 416.378 177.146C416.378 177.146 398.571 101.868 415.108 97.9914C431.646 94.1143 431.093 184.128 431.093 184.128C431.093 184.128 436.52 119.721 443.145 137.563C449.771 155.416 435.844 215.165 435.844 215.165C435.844 215.165 444.927 194.988 449.976 213.612C455.024 232.236 439.94 307.513 439.94 307.513C439.94 307.513 452.761 295.1 453.959 310.619C455.157 326.137 427.407 374.254 427.407 374.254L411.709 375.807L410.285 370.377Z" fill="url(#paint1_linear_331_16959)"/>
<path opacity="0.6" d="M410.285 370.377C410.285 370.377 384.921 316.83 390.44 315.277C395.96 313.724 407.5 322.26 407.5 322.26C407.5 322.26 373.596 232.246 382.371 225.253C391.147 218.27 407.531 253.965 407.531 253.965C407.531 253.965 390.031 198.865 392.089 177.917C394.147 156.969 416.378 177.146 416.378 177.146C416.378 177.146 398.571 101.868 415.108 97.9914C431.646 94.1143 431.093 184.128 431.093 184.128C431.093 184.128 436.52 119.721 443.145 137.563C449.771 155.416 435.844 215.165 435.844 215.165C435.844 215.165 444.927 194.988 449.976 213.612C455.024 232.236 439.94 307.513 439.94 307.513C439.94 307.513 452.761 295.1 453.959 310.619C455.157 326.137 427.407 374.254 427.407 374.254L411.709 375.807L410.285 370.377Z" fill="white"/>
<path d="M415.692 372.702C415.692 372.702 394.557 335.454 398.468 328.471C402.38 321.488 414.125 337.788 414.125 337.788C414.125 337.788 387.501 271.828 391.423 265.617C395.335 259.405 407.869 286.565 407.869 286.565C407.869 286.565 403.168 195.769 411.002 198.875C418.836 201.981 419.614 245.44 419.614 245.44C419.614 245.44 414.914 142.232 421.959 145.338C429.004 148.443 428.226 263.293 428.226 263.293C428.226 263.293 442.316 219.062 444.671 239.239C447.016 259.416 426.659 313.734 426.659 313.734C426.659 313.734 446.238 271.057 448.583 293.558C450.928 316.059 432.926 357.965 432.926 357.965C432.926 357.965 439.971 340.894 439.971 350.201C439.971 359.518 434.493 371.149 434.493 371.149" stroke="#263238" stroke-miterlimit="10" stroke-linecap="round" stroke-linejoin="round"/>
<path d="M357.539 257.294L386.068 318.981L368.127 324.005L346.961 297.901L357.539 257.294Z" fill="url(#paint2_linear_331_16959)"/>
<g opacity="0.1">
<path d="M352.399 277.044L351.18 281.713L374.875 322.117L378.265 321.163L352.399 277.044Z" fill="#1D1D1D"/>
<path d="M368.261 323.965L371.671 323.011L349.644 287.62L348.457 292.167L368.261 323.965Z" fill="#1D1D1D"/>
<path d="M355.327 265.809L354.068 270.62L381.265 320.331L384.634 319.387L355.327 265.809Z" fill="#1D1D1D"/>
</g>
<path d="M357.539 257.294L386.068 318.981L368.127 324.005L346.961 297.901L357.539 257.294Z" stroke="#263238" stroke-miterlimit="10" stroke-linecap="round" stroke-linejoin="round"/>
<path d="M300.82 240.111L263.68 257.071L283.484 336.722L277.186 370.225H347.637L340.664 333.82L357.765 257.294L318.832 241.451L300.82 240.111Z" fill="url(#paint3_linear_331_16959)"/>
<g opacity="0.1">
<path d="M301.158 370.225L302.592 338.498C302.602 338.346 302.592 338.194 302.571 338.052L287.98 245.988L283.679 247.947L298.035 338.529L296.602 370.225H301.158Z" fill="#1D1D1D"/>
<path d="M309.698 330.897C309.698 330.856 309.688 330.815 309.688 330.775L298.137 241.339L293.806 243.318L305.172 331.292L308.111 370.225H312.678L309.698 330.897Z" fill="#1D1D1D"/>
<path d="M288.276 370.225L292.331 339.249C292.362 339.026 292.352 338.793 292.311 338.569L276.695 251.133L272.425 253.082L287.775 339.016L283.689 370.225H288.276Z" fill="#1D1D1D"/>
<path d="M356.157 256.634L351.856 254.889L336.199 335.149C336.148 335.413 336.148 335.677 336.189 335.941L341.821 370.225H346.429L340.736 335.616L340.869 334.956L340.654 333.83L344.074 318.504L356.157 256.634Z" fill="#1D1D1D"/>
<path d="M315.105 249.226L310.559 249.368L314.337 370.225H318.894L315.105 249.226Z" fill="#1D1D1D"/>
<path d="M331.08 335.027L346.204 252.595L341.903 250.839L326.533 334.611C326.482 334.865 326.482 335.129 326.533 335.392L332.513 370.225H337.131L331.08 335.027Z" fill="#1D1D1D"/>
<path d="M322.806 332.216L334.305 247.754L329.953 245.988L318.259 331.901C318.239 332.084 318.228 332.267 318.249 332.449L322.488 370.225H327.066L322.806 332.216Z" fill="#1D1D1D"/>
</g>
<path d="M300.82 240.111L263.68 257.071L283.484 336.722L277.186 370.225H347.637L340.664 333.82L357.765 257.294L318.832 241.451L300.82 240.111Z" stroke="#263238" stroke-miterlimit="10" stroke-linecap="round" stroke-linejoin="round"/>
<path d="M263.679 257.071L234.424 319.864L253.102 323.782L274.257 297.678L263.679 257.071Z" fill="url(#paint4_linear_331_16959)"/>
<g opacity="0.1">
<path d="M271.37 286.595L250.992 323.335L253.102 323.782L257.976 317.753L272.619 291.365L271.37 286.595Z" fill="#1D1D1D"/>
<path d="M269.537 279.572L268.205 274.446L245.462 322.178L248.893 322.899L269.537 279.572Z" fill="#1D1D1D"/>
<path d="M238.039 320.625L241.469 321.346L266.629 268.387L265.287 263.262L238.039 320.625Z" fill="#1D1D1D"/>
</g>
<path d="M262.922 267.524L273.233 294.978L262.871 279.257" stroke="#263238" stroke-miterlimit="10"/>
<path d="M263.679 257.071L234.424 319.864L253.102 323.782L274.257 297.678L263.679 257.071Z" stroke="#263238" stroke-miterlimit="10" stroke-linecap="round" stroke-linejoin="round"/>
<path d="M254.453 314.404L291.368 356.127L284.17 364.156L237.649 327.435C237.649 327.435 231.27 324.441 235.1 318.189" fill="url(#paint5_linear_331_16959)"/>
<g opacity="0.1">
<path d="M287.497 359.04L290.948 356.097L272.332 334.621L254.453 314.404L249.64 315.348L287.497 359.04Z" fill="#1D1D1D"/>
<path d="M280.114 360.969L283.197 363.394L286.095 360.877L246.292 316.007L241.131 317.022L280.114 360.969Z" fill="#1D1D1D"/>
</g>
<path d="M254.453 314.404L291.368 356.127L284.17 364.156L237.649 327.435C237.649 327.435 231.27 324.441 235.1 318.189" stroke="#263238" stroke-miterlimit="10" stroke-linecap="round" stroke-linejoin="round"/>
<path d="M285.439 354.554C286.504 353.986 304.271 349.764 304.517 351.926C304.762 354.077 310.067 356.473 312.483 356.473C314.9 356.473 317.317 354.554 317.798 357.427C318.279 360.299 315.627 360.543 313.456 360.776C311.285 361.02 303.8 358.624 303.8 358.624C303.8 358.624 296.796 364.369 293.898 365.81C291 367.251 285.685 366.764 283.76 365.333C281.825 363.892 279.162 357.904 285.439 354.554Z" fill="white" stroke="#263238" stroke-miterlimit="10" stroke-linecap="round" stroke-linejoin="round"/>
<path d="M301.864 351.682C301.864 351.682 308.623 349.764 310.077 350.485C311.521 351.205 312.248 365.566 312.248 365.566C312.248 365.566 311.521 367.008 310.077 365.566C308.623 364.135 303.8 353.357 303.8 353.357" fill="white"/>
<path d="M301.864 351.682C301.864 351.682 308.623 349.764 310.077 350.485C311.521 351.205 312.248 365.566 312.248 365.566C312.248 365.566 311.521 367.008 310.077 365.566C308.623 364.135 303.8 353.357 303.8 353.357" stroke="#263238" stroke-miterlimit="10" stroke-linecap="round" stroke-linejoin="round"/>
<path d="M298.485 352.159C298.485 352.159 305.489 350.485 306.933 353.113C308.387 355.742 312.002 367.475 309.104 367.952C306.206 368.429 305.243 364.602 305.243 364.602L300.656 356.229L297.512 355.752" fill="white"/>
<path d="M298.485 352.159C298.485 352.159 305.489 350.485 306.933 353.113C308.387 355.742 312.002 367.475 309.104 367.952C306.206 368.429 305.243 364.602 305.243 364.602L300.656 356.229L297.512 355.752" stroke="#263238" stroke-miterlimit="10" stroke-linecap="round" stroke-linejoin="round"/>
<path d="M296.068 354.321C296.068 354.321 299.448 352.88 301.137 354.077C302.827 355.275 310.558 367.484 309.104 367.961C307.66 368.438 304.271 368.205 303.789 367.241C303.308 366.287 297.031 358.147 297.031 358.147" fill="white"/>
<path d="M296.068 354.321C296.068 354.321 299.448 352.88 301.137 354.077C302.827 355.275 310.558 367.484 309.104 367.961C307.66 368.438 304.271 368.205 303.789 367.241C303.308 366.287 297.031 358.147 297.031 358.147" stroke="#263238" stroke-miterlimit="10" stroke-linecap="round" stroke-linejoin="round"/>
<path d="M293.652 358.391C293.652 358.391 296.796 355.519 298.485 356.473C300.175 357.427 307.179 366.521 305.735 367.485C304.281 368.439 303.318 367.485 301.875 365.567C300.42 363.648 298.25 362.217 298.25 362.217L295.352 363.171" fill="white"/>
<path d="M293.652 358.391C293.652 358.391 296.796 355.519 298.485 356.473C300.175 357.427 307.179 366.521 305.735 367.485C304.281 368.439 303.318 367.485 301.875 365.567C300.42 363.648 298.25 362.217 298.25 362.217L295.352 363.171" stroke="#263238" stroke-miterlimit="10" stroke-linecap="round" stroke-linejoin="round"/>
<path d="M364.973 315.744L352.655 357.183L361.543 363.334L381.613 331.343C381.613 331.343 389.867 322.107 384.685 316.911" fill="url(#paint6_linear_331_16959)"/>
<g opacity="0.1">
<path d="M361.85 362.836L362.014 362.582L379.012 316.576L374.271 316.302L357.836 360.776L359.669 362.045L361.85 362.836Z" fill="#1D1D1D"/>
<path d="M352.706 357.224L356.566 359.893L372.438 316.322L371.998 316.16L367.748 315.916L352.706 357.224Z" fill="#1D1D1D"/>
<path d="M386.129 319.336C385.873 318.474 385.412 317.652 384.675 316.911L382.238 316.769L369.366 350.86L381.572 331.394L386.129 319.336Z" fill="#1D1D1D"/>
</g>
<path d="M364.973 315.744L352.655 357.183L361.543 363.334L381.613 331.343C381.613 331.343 389.867 322.107 384.685 316.911" stroke="#263238" stroke-miterlimit="10" stroke-linecap="round" stroke-linejoin="round"/>
<path d="M358.87 354.554C357.805 353.986 340.039 349.764 339.793 351.926C339.547 354.077 334.243 356.473 331.826 356.473C329.41 356.473 326.993 354.554 326.512 357.427C326.031 360.299 328.683 360.543 330.864 360.776C333.035 361.02 340.52 358.624 340.52 358.624C340.52 358.624 347.524 364.369 350.422 365.81C353.32 367.251 358.635 366.764 360.56 365.333C362.495 363.892 365.147 357.904 358.87 354.554Z" fill="white" stroke="#263238" stroke-miterlimit="10" stroke-linecap="round" stroke-linejoin="round"/>
<path d="M342.456 351.682C342.456 351.682 335.697 349.764 334.243 350.485C332.799 351.205 332.072 365.566 332.072 365.566C332.072 365.566 332.799 367.008 334.243 365.566C335.697 364.135 340.52 353.357 340.52 353.357" fill="white"/>
<path d="M342.456 351.682C342.456 351.682 335.697 349.764 334.243 350.485C332.799 351.205 332.072 365.566 332.072 365.566C332.072 365.566 332.799 367.008 334.243 365.566C335.697 364.135 340.52 353.357 340.52 353.357" stroke="#263238" stroke-miterlimit="10" stroke-linecap="round" stroke-linejoin="round"/>
<path d="M345.835 352.159C345.835 352.159 338.831 350.485 337.387 353.113C335.933 355.742 332.318 367.475 335.216 367.952C338.114 368.429 339.076 364.602 339.076 364.602L343.664 356.229L346.807 355.752" fill="white"/>
<path d="M345.835 352.159C345.835 352.159 338.831 350.485 337.387 353.113C335.933 355.742 332.318 367.475 335.216 367.952C338.114 368.429 339.076 364.602 339.076 364.602L343.664 356.229L346.807 355.752" stroke="#263238" stroke-miterlimit="10" stroke-linecap="round" stroke-linejoin="round"/>
<path d="M348.251 354.321C348.251 354.321 344.872 352.88 343.182 354.077C341.493 355.275 333.762 367.484 335.216 367.961C336.66 368.438 340.049 368.205 340.53 367.241C341.012 366.287 347.289 358.147 347.289 358.147" fill="white"/>
<path d="M348.251 354.321C348.251 354.321 344.872 352.88 343.182 354.077C341.493 355.275 333.762 367.484 335.216 367.961C336.66 368.438 340.049 368.205 340.53 367.241C341.012 366.287 347.289 358.147 347.289 358.147" stroke="#263238" stroke-miterlimit="10" stroke-linecap="round" stroke-linejoin="round"/>
<path d="M350.657 358.391C350.657 358.391 347.514 355.519 345.824 356.473C344.135 357.427 337.13 366.521 338.585 367.485C340.028 368.439 341.001 367.485 342.445 365.567C343.899 363.648 346.07 362.217 346.07 362.217L348.968 363.171" fill="white"/>
<path d="M350.657 358.391C350.657 358.391 347.514 355.519 345.824 356.473C344.135 357.427 337.13 366.521 338.585 367.485C340.028 368.439 341.001 367.485 342.445 365.567C343.899 363.648 346.07 362.217 346.07 362.217L348.968 363.171" stroke="#263238" stroke-miterlimit="10" stroke-linecap="round" stroke-linejoin="round"/>
<path d="M303.523 235.879C303.523 235.879 297.666 237.665 295.198 241.238C292.72 244.811 295.649 272.467 295.649 272.467L314.337 262.206L333.916 274.477C333.916 274.477 332.113 246.14 330.536 242.131C328.959 238.112 319.057 233.433 315.678 233.88C312.299 234.316 303.523 235.879 303.523 235.879Z" fill="url(#paint7_linear_331_16959)" stroke="#263238" stroke-miterlimit="10" stroke-linecap="round" stroke-linejoin="round"/>
<path d="M300.82 220.483V246.14L313.2 279.155L323.778 245.47V220.259L300.82 220.483Z" fill="white" stroke="#263238" stroke-miterlimit="10" stroke-linecap="round" stroke-linejoin="round"/>
<path d="M300.82 229.698C304.199 232.043 308.305 233.433 312.749 233.433C316.804 233.433 320.573 232.266 323.778 230.287V220.27L300.82 220.493V229.698Z" fill="#263238" stroke="#263238" stroke-miterlimit="10" stroke-linecap="round" stroke-linejoin="round"/>
<path d="M312.749 227.587C301.229 227.587 291.891 218.331 291.891 206.913L288.214 177.866C288.214 164.439 299.202 153.548 312.749 153.548C326.297 153.548 337.284 164.439 337.284 177.866L333.608 206.913C333.608 218.331 324.269 227.587 312.749 227.587Z" fill="white" stroke="#263238" stroke-miterlimit="10" stroke-linecap="round" stroke-linejoin="round"/>
<path d="M318.104 199.007C318.104 199.007 323.419 194.592 329.768 199.342" stroke="#263238" stroke-miterlimit="10" stroke-linecap="round" stroke-linejoin="round"/>
<path d="M308.51 198.489C308.51 198.489 305.94 196.794 303.195 197.302" stroke="#263238" stroke-miterlimit="10" stroke-linecap="round" stroke-linejoin="round"/>
<path d="M320.163 188.462C320.163 188.462 325.826 185.742 329.256 191.009" stroke="#263238" stroke-miterlimit="10" stroke-linecap="round" stroke-linejoin="round"/>
<path d="M311.08 210.729C311.08 210.729 313.476 212.597 315.534 210.729" stroke="#263238" stroke-miterlimit="10" stroke-linecap="round" stroke-linejoin="round"/>
<path d="M308.674 214.81C308.674 214.81 313.65 217.865 316.559 214.81" stroke="#263238" stroke-miterlimit="10" stroke-linecap="round" stroke-linejoin="round"/>
<path d="M323.245 174.842C323.245 174.842 302.684 193.658 296.949 207.38C291.215 221.102 296.355 235.412 299.519 239.523C302.684 243.643 304.66 244.222 304.66 244.222C304.66 244.222 293.785 248.343 286.668 237.554C279.551 226.775 281.333 214.627 283.504 206.193C285.675 197.769 285.091 173.065 290.027 164.834C294.973 156.603 302.09 150.524 313.958 151.894C325.826 153.264 332.154 159.344 335.912 166.986C339.67 174.628 337.889 187.569 339.076 193.252C340.264 198.936 345.405 215.987 346.593 226.177C347.78 236.366 333.741 243.623 331.56 244.597C329.389 245.582 326.819 245.582 326.819 245.582C326.819 245.582 331.56 222.066 332.554 208.537C333.547 195.008 333.547 186.98 333.547 186.98C333.547 186.98 324.228 175.43 323.245 174.842Z" fill="#263238"/>
<path d="M320.829 161.607C320.829 161.607 318.402 168.234 300.953 187.224C283.494 206.213 278.752 224.329 284.057 242.07" stroke="#1D1D1D" stroke-miterlimit="10"/>
<path d="M316.518 155.03C316.518 155.03 306.913 162.916 294.983 174.73C283.053 186.554 276.428 199.362 276.428 199.362" stroke="#1D1D1D" stroke-miterlimit="10"/>
<path d="M325.14 163.241C325.14 163.241 332.431 176.374 336.404 184.26C340.377 192.146 345.015 236.478 331.099 252.24" stroke="#1D1D1D" stroke-miterlimit="10"/>
<path d="M320.163 152.412L323.245 174.842" stroke="#1D1D1D" stroke-miterlimit="10"/>
<path d="M323.245 174.842C323.245 174.842 302.684 193.658 296.949 207.38C291.215 221.102 296.355 235.412 299.519 239.523C302.684 243.643 304.66 244.222 304.66 244.222C304.66 244.222 293.785 248.343 286.668 237.554C279.551 226.775 281.333 214.627 283.504 206.193C285.675 197.769 285.091 173.065 290.027 164.834C294.973 156.603 302.09 150.524 313.958 151.894C325.826 153.264 332.154 159.344 335.912 166.986C339.67 174.628 337.889 187.569 339.076 193.252C340.264 198.936 345.405 215.987 346.593 226.177C347.78 236.366 333.741 243.623 331.56 244.597C329.389 245.582 326.819 245.582 326.819 245.582C326.819 245.582 331.56 222.066 332.554 208.537C333.547 195.008 333.547 186.98 333.547 186.98C333.547 186.98 324.228 175.43 323.245 174.842Z" stroke="#263238" stroke-miterlimit="10" stroke-linecap="round" stroke-linejoin="round"/>
<path d="M286.187 206.009H283.166C281.487 206.009 280.135 204.66 280.135 203.005V190.989C280.135 189.324 281.497 187.984 283.166 187.984H286.187C287.866 187.984 289.218 189.334 289.218 190.989V203.005C289.228 204.66 287.866 206.009 286.187 206.009Z" fill="white" stroke="#263238" stroke-miterlimit="10" stroke-linecap="round" stroke-linejoin="round"/>
<path d="M341.759 206.009H338.739C337.059 206.009 335.708 204.66 335.708 203.005V190.989C335.708 189.324 337.069 187.984 338.739 187.984H341.759C343.439 187.984 344.79 189.334 344.79 190.989V203.005C344.79 204.66 343.439 206.009 341.759 206.009Z" fill="white" stroke="#263238" stroke-miterlimit="10" stroke-linecap="round" stroke-linejoin="round"/>
<path d="M341.043 187.974V178.17C341.043 162.368 328.12 149.549 312.166 149.549C296.222 149.549 283.289 162.358 283.289 178.17V187.974" stroke="#263238" stroke-width="2" stroke-miterlimit="10" stroke-linejoin="round"/>
<path d="M340.244 205.918C340.244 205.918 338.964 215.733 326.85 219.742" stroke="#263238" stroke-miterlimit="10" stroke-linecap="round" stroke-linejoin="round"/>
<path d="M326.43 219.305C326.942 220.777 325.498 222.604 323.205 223.395C320.911 224.187 318.627 223.639 318.115 222.167C317.603 220.696 319.047 218.869 321.341 218.077C323.635 217.286 325.918 217.834 326.43 219.305Z" stroke="#263238" stroke-miterlimit="10" stroke-linecap="round" stroke-linejoin="round"/>
<path d="M119.132 231.972L76.8203 251.956L89.0264 370.458H173.373L185.303 249.987L145.551 231.688L119.132 231.972Z" fill="url(#paint8_linear_331_16959)" stroke="#263238" stroke-miterlimit="10" stroke-linecap="round" stroke-linejoin="round"/>
<path d="M136.089 268.134C136.881 268.134 137.523 267.498 137.523 266.713C137.523 265.928 136.881 265.292 136.089 265.292C135.298 265.292 134.656 265.928 134.656 266.713C134.656 267.498 135.298 268.134 136.089 268.134Z" fill="#263238"/>
<path d="M137.523 275.228C137.523 276.01 136.878 276.649 136.089 276.649C135.301 276.649 134.656 276.01 134.656 275.228C134.656 274.447 135.301 273.807 136.089 273.807C136.878 273.807 137.523 274.447 137.523 275.228Z" fill="#263238"/>
<path d="M150.773 238.011L139.202 250.799L134.267 263.201L128.962 250.606L117.77 238.011V215.642H150.773V238.011Z" fill="white" stroke="#263238" stroke-miterlimit="10" stroke-linecap="round" stroke-linejoin="round"/>
<path d="M117.77 225.588C122.03 230.703 128.481 233.961 135.69 233.961C141.445 233.961 146.708 231.87 150.763 228.43V215.642H117.76V225.588H117.77Z" fill="#263238" stroke="#263238" stroke-miterlimit="10" stroke-linecap="round" stroke-linejoin="round"/>
<path d="M138.014 227.679H133.365C121.814 227.679 112.455 218.402 112.455 206.954V173.766C112.455 162.317 121.814 153.041 133.365 153.041H138.014C149.565 153.041 158.924 162.317 158.924 173.766V206.954C158.924 218.402 149.565 227.679 138.014 227.679Z" fill="white" stroke="#263238" stroke-miterlimit="10" stroke-linecap="round" stroke-linejoin="round"/>
<path d="M140.144 186.138L139.458 202.448C139.397 203.889 138.495 205.218 137.113 205.634C135.884 206.01 134.461 205.685 133.703 202.864" stroke="#263238" stroke-miterlimit="10" stroke-linecap="round" stroke-linejoin="round"/>
<path d="M126.679 208.882H145.08C145.08 208.882 141.854 215.834 135.598 215.834C129.341 215.834 126.679 208.882 126.679 208.882Z" fill="#263238" stroke="#263238" stroke-miterlimit="10" stroke-linecap="round" stroke-linejoin="round"/>
<path d="M128.02 211.318H143.544C144.558 209.988 145.08 208.872 145.08 208.872H126.679C126.679 208.882 127.119 209.988 128.02 211.318Z" fill="white" stroke="#263238" stroke-miterlimit="10" stroke-linecap="round" stroke-linejoin="round"/>
<path d="M126.494 193.466C127.229 193.466 127.825 192.075 127.825 190.36C127.825 188.645 127.229 187.254 126.494 187.254C125.759 187.254 125.163 188.645 125.163 190.36C125.163 192.075 125.759 193.466 126.494 193.466Z" fill="#263238"/>
<path d="M146.411 193.466C147.146 193.466 147.742 192.075 147.742 190.36C147.742 188.645 147.146 187.254 146.411 187.254C145.676 187.254 145.08 188.645 145.08 190.36C145.08 192.075 145.676 193.466 146.411 193.466Z" fill="#263238"/>
<path d="M142.233 182.19C142.233 182.19 146.79 179.368 151.91 183.885" stroke="#263238" stroke-miterlimit="10" stroke-linecap="round" stroke-linejoin="round"/>
<path d="M135.69 153.051C122.859 153.051 112.455 163.363 112.455 176.08V197.048L112.65 197.038H114.544V188.391C114.544 188.391 124.026 188.391 135.219 182.373C146.411 176.354 149.258 166.58 149.258 166.58C149.258 166.58 151.725 178.424 154.378 180.678C157.03 182.931 157.03 182.931 157.03 182.931V197.221H158.924V176.07C158.924 163.363 148.52 153.051 135.69 153.051Z" fill="#263238" stroke="#263238" stroke-miterlimit="10" stroke-linecap="round" stroke-linejoin="round"/>
<path d="M112.455 203.046H108.103C105.789 203.046 103.925 201.189 103.925 198.905V190.086C103.925 187.792 105.799 185.945 108.103 185.945H112.455V203.046Z" fill="white" stroke="#263238" stroke-miterlimit="10" stroke-linecap="round" stroke-linejoin="round"/>
<path d="M158.638 203.046H162.99C165.304 203.046 167.168 201.189 167.168 198.905V190.086C167.168 187.792 165.294 185.945 162.99 185.945H158.638V203.046Z" fill="white" stroke="#263238" stroke-miterlimit="10" stroke-linecap="round" stroke-linejoin="round"/>
<path d="M108.667 185.945V175.045C108.667 160.298 120.729 148.352 135.598 148.352C150.476 148.352 162.529 160.308 162.529 175.045V185.945" stroke="#263238" stroke-width="2" stroke-miterlimit="10" stroke-linejoin="round"/>
<path d="M162.529 203.046C162.529 203.046 161.197 213.196 148.684 217.337" stroke="#263238" stroke-miterlimit="10" stroke-linecap="round" stroke-linejoin="round"/>
<path d="M148.244 216.89C148.776 218.412 147.281 220.3 144.906 221.122C142.53 221.944 140.175 221.366 139.642 219.854C139.11 218.331 140.605 216.443 142.981 215.621C145.356 214.799 147.711 215.368 148.244 216.89Z" stroke="#263238" stroke-miterlimit="10" stroke-linecap="round" stroke-linejoin="round"/>
<path d="M76.82 251.956L41.0415 326.999L55.8076 339.777L82.5032 306.559L76.82 251.956Z" fill="url(#paint9_linear_331_16959)" stroke="#263238" stroke-miterlimit="10" stroke-linecap="round" stroke-linejoin="round"/>
<path d="M73.8811 274.954L82.5748 304.021L72.2529 287.336" stroke="#263238" stroke-miterlimit="10"/>
<path d="M185.302 249.987L219.381 325.416L198.369 334.429L179.629 304.59L185.302 249.987Z" fill="url(#paint10_linear_331_16959)" stroke="#263238" stroke-miterlimit="10" stroke-linecap="round" stroke-linejoin="round"/>
<path d="M60.344 325.142L91.023 353.57L82.5034 363.415L37.9185 336.012L43.0282 322.503" fill="url(#paint11_linear_331_16959)"/>
<path d="M60.344 325.142L91.023 353.57L82.5034 363.415L37.9185 336.012L43.0282 322.503" stroke="#263238" stroke-miterlimit="10" stroke-linecap="round" stroke-linejoin="round"/>
<path d="M85.903 351.875C87.1523 351.205 108.052 346.242 108.339 348.78C108.626 351.317 114.872 354.128 117.708 354.128C120.545 354.128 123.392 351.875 123.955 355.255C124.518 358.635 121.395 358.919 118.845 359.193C116.285 359.477 107.489 356.656 107.489 356.656C107.489 356.656 99.256 363.415 95.8461 365.1C92.4361 366.785 86.1897 366.226 83.9165 364.542C81.6432 362.857 78.52 355.823 85.903 351.875Z" fill="white" stroke="#263238" stroke-miterlimit="10" stroke-linecap="round" stroke-linejoin="round"/>
<path d="M105.216 348.506C105.216 348.506 113.172 346.252 114.872 347.095C116.572 347.937 117.432 364.826 117.432 364.826C117.432 364.826 116.582 366.51 114.872 364.826C113.172 363.141 107.489 350.475 107.489 350.475" fill="white"/>
<path d="M105.216 348.506C105.216 348.506 113.172 346.252 114.872 347.095C116.572 347.937 117.432 364.826 117.432 364.826C117.432 364.826 116.582 366.51 114.872 364.826C113.172 363.141 107.489 350.475 107.489 350.475" stroke="#263238" stroke-miterlimit="10" stroke-linecap="round" stroke-linejoin="round"/>
<path d="M101.243 349.064C101.243 349.064 109.476 347.095 111.186 350.191C112.885 353.286 117.145 367.079 113.746 367.647C110.336 368.205 109.199 363.709 109.199 363.709L103.803 353.854L100.106 353.296" fill="white"/>
<path d="M101.243 349.064C101.243 349.064 109.476 347.095 111.186 350.191C112.885 353.286 117.145 367.079 113.746 367.647C110.336 368.205 109.199 363.709 109.199 363.709L103.803 353.854L100.106 353.296" stroke="#263238" stroke-miterlimit="10" stroke-linecap="round" stroke-linejoin="round"/>
<path d="M98.4062 351.601C98.4062 351.601 102.379 349.916 104.366 351.317C106.352 352.727 115.446 367.079 113.736 367.647C112.036 368.205 108.052 367.931 107.489 366.805C106.926 365.678 99.5326 356.107 99.5326 356.107" fill="white"/>
<path d="M98.4062 351.601C98.4062 351.601 102.379 349.916 104.366 351.317C106.352 352.727 115.446 367.079 113.736 367.647C112.036 368.205 108.052 367.931 107.489 366.805C106.926 365.678 99.5326 356.107 99.5326 356.107" stroke="#263238" stroke-miterlimit="10" stroke-linecap="round" stroke-linejoin="round"/>
<path d="M95.5596 356.381C95.5596 356.381 99.2562 353.002 101.243 354.128C103.229 355.255 111.462 365.952 109.762 367.079C108.063 368.205 106.926 367.079 105.216 364.826C103.516 362.573 100.956 360.888 100.956 360.888L97.5461 362.014" fill="white"/>
<path d="M95.5596 356.381C95.5596 356.381 99.2562 353.002 101.243 354.128C103.229 355.255 111.462 365.952 109.762 367.079C108.063 368.205 106.926 367.079 105.216 364.826C103.516 362.573 100.956 360.888 100.956 360.888L97.5461 362.014" stroke="#263238" stroke-miterlimit="10" stroke-linecap="round" stroke-linejoin="round"/>
<path d="M193.218 317.946L175.237 355.56L186.808 361.619L220.825 325.903L211.056 315.206" fill="url(#paint12_linear_331_16959)"/>
<path d="M193.218 317.946L175.237 355.56L186.808 361.619L220.825 325.903L211.056 315.206" stroke="#263238" stroke-miterlimit="10" stroke-linecap="round" stroke-linejoin="round"/>
<path d="M184.237 351.875C182.988 351.205 162.088 346.242 161.802 348.78C161.515 351.317 155.269 354.128 152.432 354.128C149.596 354.128 146.749 351.875 146.186 355.255C145.623 358.635 148.746 358.919 151.295 359.193C153.855 359.477 162.652 356.656 162.652 356.656C162.652 356.656 170.885 363.415 174.294 365.1C177.704 366.785 183.951 366.226 186.224 364.542C188.497 362.857 191.621 355.823 184.237 351.875Z" fill="white" stroke="#263238" stroke-miterlimit="10" stroke-linecap="round" stroke-linejoin="round"/>
<path d="M164.925 348.506C164.925 348.506 156.968 346.252 155.268 347.095C153.569 347.937 152.708 364.826 152.708 364.826C152.708 364.826 153.558 366.51 155.268 364.826C156.968 363.141 162.652 350.475 162.652 350.475" fill="white"/>
<path d="M164.925 348.506C164.925 348.506 156.968 346.252 155.268 347.095C153.569 347.937 152.708 364.826 152.708 364.826C152.708 364.826 153.558 366.51 155.268 364.826C156.968 363.141 162.652 350.475 162.652 350.475" stroke="#263238" stroke-miterlimit="10" stroke-linecap="round" stroke-linejoin="round"/>
<path d="M168.898 349.064C168.898 349.064 160.665 347.095 158.955 350.191C157.255 353.286 152.995 367.079 156.395 367.647C159.805 368.205 160.942 363.709 160.942 363.709L166.338 353.854L170.035 353.296" fill="white"/>
<path d="M168.898 349.064C168.898 349.064 160.665 347.095 158.955 350.191C157.255 353.286 152.995 367.079 156.395 367.647C159.805 368.205 160.942 363.709 160.942 363.709L166.338 353.854L170.035 353.296" stroke="#263238" stroke-miterlimit="10" stroke-linecap="round" stroke-linejoin="round"/>
<path d="M171.745 351.601C171.745 351.601 167.772 349.916 165.785 351.317C163.799 352.727 154.705 367.079 156.416 367.647C158.115 368.205 162.099 367.931 162.662 366.805C163.225 365.678 170.618 356.107 170.618 356.107" fill="white"/>
<path d="M171.745 351.601C171.745 351.601 167.772 349.916 165.785 351.317C163.799 352.727 154.705 367.079 156.416 367.647C158.115 368.205 162.099 367.931 162.662 366.805C163.225 365.678 170.618 356.107 170.618 356.107" stroke="#263238" stroke-miterlimit="10" stroke-linecap="round" stroke-linejoin="round"/>
<path d="M174.581 356.381C174.581 356.381 170.885 353.002 168.898 354.128C166.912 355.255 158.679 365.952 160.378 367.079C162.078 368.205 163.215 367.079 164.925 364.826C166.625 362.573 169.185 360.888 169.185 360.888L172.595 362.014" fill="white"/>
<path d="M174.581 356.381C174.581 356.381 170.885 353.002 168.898 354.128C166.912 355.255 158.679 365.952 160.378 367.079C162.078 368.205 163.215 367.079 164.925 364.826C166.625 362.573 169.185 360.888 169.185 360.888L172.595 362.014" stroke="#263238" stroke-miterlimit="10" stroke-linecap="round" stroke-linejoin="round"/>
<path d="M237.977 110.099H171.397C164.966 110.099 159.764 115.265 159.764 121.629V140.943C159.764 147.316 164.976 152.472 171.397 152.472H179.599L168.427 166.955L193.536 152.482H237.967C244.398 152.482 249.6 147.316 249.6 140.953V121.639C249.61 115.265 244.398 110.099 237.977 110.099Z" fill="white" stroke="#263238" stroke-miterlimit="10"/>
<path d="M195.553 132.631C195.553 134.112 194.344 135.31 192.849 135.31C191.354 135.31 190.146 134.112 190.146 132.631C190.146 131.149 191.354 129.951 192.849 129.951C194.344 129.951 195.553 131.149 195.553 132.631Z" fill="#263238"/>
<path d="M207.39 132.631C207.39 134.112 206.182 135.31 204.687 135.31C203.192 135.31 201.983 134.112 201.983 132.631C201.983 131.149 203.192 129.951 204.687 129.951C206.182 129.951 207.39 131.149 207.39 132.631Z" fill="#263238"/>
<path d="M219.238 132.631C219.238 134.112 218.029 135.31 216.534 135.31C215.039 135.31 213.831 134.112 213.831 132.631C213.831 131.149 215.039 129.951 216.534 129.951C218.019 129.951 219.238 131.149 219.238 132.631Z" fill="#263238"/>
<path d="M373.954 367.403H249.907V372.366H373.954V367.403Z" fill="white" stroke="#263238" stroke-miterlimit="10" stroke-linecap="round" stroke-linejoin="round"/>
<path d="M393.011 367.403H284.887V372.366H393.011V367.403Z" fill="white" stroke="#263238" stroke-miterlimit="10" stroke-linecap="round" stroke-linejoin="round"/>
<path d="M395.11 358.584H291.666L302.817 280.312H406.261L395.11 358.584Z" fill="white" stroke="#263238" stroke-miterlimit="10" stroke-linecap="round" stroke-linejoin="round"/>
<path d="M399.39 358.584H295.946L307.097 280.312H410.541L399.39 358.584Z" fill="#263238" stroke="#263238" stroke-miterlimit="10" stroke-linecap="round" stroke-linejoin="round"/>
<path d="M367.697 322.199L378.07 372.356H351.375L341.001 322.199H367.697ZM349.583 337.088C349.685 337.514 350.064 337.808 350.504 337.798L365.629 337.656C366.233 337.646 366.673 337.088 366.53 336.509L365.168 330.876C365.065 330.45 364.687 330.156 364.246 330.166L349.122 330.308C348.518 330.318 348.077 330.876 348.221 331.455L349.583 337.088Z" fill="white" stroke="#263238" stroke-miterlimit="10" stroke-linecap="round" stroke-linejoin="round"/>
<path d="M190.484 367.403H66.437V372.366H190.484V367.403Z" fill="white" stroke="#263238" stroke-miterlimit="10" stroke-linecap="round" stroke-linejoin="round"/>
<path d="M209.531 367.403H101.407V372.366H209.531V367.403Z" fill="white" stroke="#263238" stroke-miterlimit="10" stroke-linecap="round" stroke-linejoin="round"/>
<path d="M211.63 358.584H108.186L119.347 280.312H222.781L211.63 358.584Z" fill="white" stroke="#263238" stroke-miterlimit="10" stroke-linecap="round" stroke-linejoin="round"/>
<path d="M215.91 358.584H112.466L123.617 280.312H227.062L215.91 358.584Z" fill="#263238" stroke="#263238" stroke-miterlimit="10" stroke-linecap="round" stroke-linejoin="round"/>
<path d="M184.217 322.199L194.59 372.356H167.895L157.521 322.199H184.217ZM166.103 337.088C166.205 337.514 166.584 337.808 167.024 337.798L182.149 337.656C182.753 337.646 183.193 337.088 183.05 336.509L181.688 330.876C181.585 330.45 181.207 330.156 180.766 330.166L165.642 330.308C165.038 330.318 164.597 330.876 164.741 331.455L166.103 337.088Z" fill="white" stroke="#263238" stroke-miterlimit="10" stroke-linecap="round" stroke-linejoin="round"/>
<path d="M443.893 372.367H2.63184V377.279H443.893V372.367Z" fill="#263238" stroke="#263238" stroke-miterlimit="10" stroke-linecap="round" stroke-linejoin="round"/>
<defs>
<linearGradient id="paint0_linear_331_16959" x1="2.73926" y1="250.863" x2="443.467" y2="178.13" gradientUnits="userSpaceOnUse">
<stop stop-color="#00A650"/>
<stop offset="1" stop-color="#0FDB71"/>
</linearGradient>
<linearGradient id="paint1_linear_331_16959" x1="380.92" y1="275.287" x2="458.178" y2="272.205" gradientUnits="userSpaceOnUse">
<stop stop-color="#00A650"/>
<stop offset="1" stop-color="#0FDB71"/>
</linearGradient>
<linearGradient id="paint2_linear_331_16959" x1="346.961" y1="299.878" x2="388.047" y2="296.224" gradientUnits="userSpaceOnUse">
<stop stop-color="#00A650"/>
<stop offset="1" stop-color="#0FDB71"/>
</linearGradient>
<linearGradient id="paint3_linear_331_16959" x1="263.68" y1="323.167" x2="362.123" y2="312.369" gradientUnits="userSpaceOnUse">
<stop stop-color="#00A650"/>
<stop offset="1" stop-color="#0FDB71"/>
</linearGradient>
<linearGradient id="paint4_linear_331_16959" x1="234.424" y1="299.655" x2="276.261" y2="295.865" gradientUnits="userSpaceOnUse">
<stop stop-color="#00A650"/>
<stop offset="1" stop-color="#0FDB71"/>
</linearGradient>
<linearGradient id="paint5_linear_331_16959" x1="233.875" y1="346.162" x2="292.94" y2="335.808" gradientUnits="userSpaceOnUse">
<stop stop-color="#00A650"/>
<stop offset="1" stop-color="#0FDB71"/>
</linearGradient>
<linearGradient id="paint6_linear_331_16959" x1="352.655" y1="346.122" x2="387.973" y2="342.324" gradientUnits="userSpaceOnUse">
<stop stop-color="#00A650"/>
<stop offset="1" stop-color="#0FDB71"/>
</linearGradient>
<linearGradient id="paint7_linear_331_16959" x1="294.203" y1="259.784" x2="335.35" y2="253.682" gradientUnits="userSpaceOnUse">
<stop stop-color="#00A650"/>
<stop offset="1" stop-color="#0FDB71"/>
</linearGradient>
<linearGradient id="paint8_linear_331_16959" x1="76.8203" y1="320.27" x2="190.1" y2="306.836" gradientUnits="userSpaceOnUse">
<stop stop-color="#00A650"/>
<stop offset="1" stop-color="#0FDB71"/>
</linearGradient>
<linearGradient id="paint9_linear_331_16959" x1="41.0415" y1="308.015" x2="84.7216" y2="304.887" gradientUnits="userSpaceOnUse">
<stop stop-color="#00A650"/>
<stop offset="1" stop-color="#0FDB71"/>
</linearGradient>
<linearGradient id="paint10_linear_331_16959" x1="179.629" y1="303.889" x2="221.509" y2="300.898" gradientUnits="userSpaceOnUse">
<stop stop-color="#00A650"/>
<stop offset="1" stop-color="#0FDB71"/>
</linearGradient>
<linearGradient id="paint11_linear_331_16959" x1="37.9185" y1="348.619" x2="92.0525" y2="337.96" gradientUnits="userSpaceOnUse">
<stop stop-color="#00A650"/>
<stop offset="1" stop-color="#0FDB71"/>
</linearGradient>
<linearGradient id="paint12_linear_331_16959" x1="175.237" y1="344.833" x2="222.462" y2="337.796" gradientUnits="userSpaceOnUse">
<stop stop-color="#00A650"/>
<stop offset="1" stop-color="#0FDB71"/>
</linearGradient>
</defs>
</svg>
