<svg width="80" height="80" viewBox="0 0 80 80" fill="none" xmlns="http://www.w3.org/2000/svg">
<rect width="80" height="80" rx="40" fill="#FBFBFB"/>
<g clip-path="url(#clip0_331_13021)">
<path d="M53.3121 53.3808L39.9512 66.7715L53.3419 53.4106C60.7028 46.0596 66.7227 40.0397 66.7227 40.0298C66.7227 40.0099 66.7128 40 66.6929 40C66.683 40 60.6631 46.0198 53.3121 53.3808Z" fill="#00A650"/>
<path d="M29.0137 47.1028C29.0137 47.5895 29.0236 47.8081 29.0435 47.5796C29.0633 47.3511 29.0633 46.9438 29.0435 46.6855C29.0236 46.4273 29.0137 46.6061 29.0137 47.1028Z" fill="#00A650"/>
<path d="M40.6451 66.6425L40.1484 67.1689L40.6749 66.6723C40.9531 66.404 41.1915 66.1656 41.1915 66.1557C41.1915 66.0762 41.1021 66.1656 40.6451 66.6425Z" fill="#00A650"/>
<path d="M54.1062 53.1822L41.1426 66.1755L54.136 53.212C61.2783 46.0795 67.1194 40.2385 67.1194 40.2285C67.1194 40.2087 67.1095 40.1987 67.0896 40.1987C67.0797 40.1987 61.2386 46.0398 54.1062 53.1822Z" fill="#00A650"/>
<path d="M15.5637 44.0232C17.779 46.2384 19.6068 48.0464 19.6366 48.0464C19.6664 48.0464 17.8783 46.2384 15.6631 44.0232C13.4478 41.808 11.62 40 11.5902 40C11.5604 40 13.3485 41.808 15.5637 44.0232Z" fill="#00A650"/>
<path d="M31.9249 40.9636C32.1037 40.9835 32.4216 40.9835 32.6202 40.9636C32.8289 40.9437 32.6898 40.9239 32.3024 40.9239C31.9249 40.9239 31.756 40.9437 31.9249 40.9636Z" fill="#00A650"/>
<path d="M35.2022 40.9636C35.381 40.9835 35.6989 40.9835 35.8976 40.9636C36.1062 40.9437 35.9671 40.9239 35.5797 40.9239C35.2022 40.9239 35.0334 40.9437 35.2022 40.9636Z" fill="#00A650"/>
<path d="M37.3472 40.9636C37.6552 40.9835 38.1717 40.9835 38.4896 40.9636C38.7975 40.9437 38.5393 40.9338 37.9134 40.9338C37.2876 40.9338 37.0293 40.9437 37.3472 40.9636Z" fill="#00A650"/>
<path d="M39.7829 40.9636C39.9021 40.9835 40.0809 40.9835 40.1803 40.9636C40.2697 40.9338 40.1703 40.9139 39.9518 40.9239C39.7332 40.9239 39.6538 40.9437 39.7829 40.9636Z" fill="#00A650"/>
<path d="M41.9175 40.9636C42.0665 40.9835 42.2851 40.9835 42.4142 40.9636C42.5334 40.9437 42.4142 40.9239 42.1361 40.9239C41.8679 40.9239 41.7586 40.9437 41.9175 40.9636Z" fill="#00A650"/>
<path d="M43.9046 40.9636C44.3318 40.9835 44.9974 40.9835 45.3947 40.9636C45.7921 40.9537 45.4444 40.9338 44.6199 40.9338C43.8053 40.9338 43.4775 40.9537 43.9046 40.9636Z" fill="#00A650"/>
<path d="M50.3122 40.9636C50.4811 40.9835 50.7791 40.9835 50.9579 40.9636C51.1267 40.9437 50.9877 40.9239 50.6301 40.9239C50.2724 40.9239 50.1334 40.9437 50.3122 40.9636Z" fill="#00A650"/>
<path d="M45.9805 46.2583C45.9805 46.4471 46.0003 46.5265 46.0301 46.4272C46.05 46.3378 46.05 46.1789 46.0301 46.0795C46.0003 45.9901 45.9805 46.0696 45.9805 46.2583Z" fill="#00A650"/>
<path d="M35.927 64.3875C38.1422 66.6027 39.97 68.4106 39.9999 68.4106C40.0297 68.4106 38.2416 66.6027 36.0263 64.3875C33.8111 62.1722 31.9833 60.3643 31.9535 60.3643C31.9237 60.3643 33.7118 62.1722 35.927 64.3875Z" fill="#00A650"/>
<path d="M35.3789 14.3903L31.1074 18.6917L35.4087 14.4201C39.3922 10.4466 39.7399 10.0989 39.6703 10.0989C39.6604 10.0989 37.7233 12.036 35.3789 14.3903Z" fill="#00A650"/>
<path d="M44.619 14.4699C46.9137 16.7646 48.811 18.6421 48.8408 18.6421C48.8706 18.6421 47.013 16.7646 44.7183 14.4699C42.4236 12.1752 40.5262 10.2977 40.4964 10.2977C40.4666 10.2977 42.3243 12.1752 44.619 14.4699Z" fill="#00A650"/>
<path d="M25.7444 25.8142L11.5391 40.0493L25.7742 25.844C33.592 18.0361 39.9993 11.6288 39.9993 11.6189C39.9993 11.599 39.9894 11.5891 39.9695 11.5891C39.9596 11.5891 33.5523 17.9963 25.7444 25.8142Z" fill="#00A650"/>
<path d="M28.3756 24.3739L16.8027 35.9766L28.4253 24.4037C34.8127 18.0362 40.0577 12.8209 40.0875 12.8011C40.1074 12.7911 40.0875 12.7812 40.0378 12.7812C39.9882 12.7812 34.7431 17.9964 28.3756 24.3739Z" fill="#00A650"/>
<path d="M26.5894 26.6388L13.2285 39.9997L26.6391 53.3904L40.0497 66.7712L26.6888 53.3805L13.3279 39.9997L26.6689 26.6686L40 13.3275L53.3808 26.6885L66.7716 40.0494L53.4106 26.6587C46.0596 19.2977 40.0298 13.2779 40 13.2779C39.9702 13.2779 33.9404 19.2878 26.5894 26.6388Z" fill="#00A650"/>
<path d="M19.8828 24.9004C19.8828 27.662 19.8927 28.7845 19.9027 27.4136C19.9225 26.0328 19.9225 23.7679 19.9027 22.3971C19.8927 21.0163 19.8828 22.1388 19.8828 24.9004Z" fill="#00A650"/>
<path d="M31.9531 26.1519C31.9531 26.2015 32.2114 26.4896 32.5293 26.7876L33.0955 27.334L32.5492 26.738C32.2511 26.4101 31.9929 26.1221 31.9829 26.1022C31.9631 26.0823 31.9531 26.1022 31.9531 26.1519Z" fill="#00A650"/>
<path d="M30.1641 26.9368C29.9257 27.1851 29.7469 27.3838 29.7767 27.3838C29.8065 27.3838 30.025 27.1851 30.2634 26.9368C30.5019 26.6884 30.6807 26.4897 30.6509 26.4897C30.6211 26.4897 30.4025 26.6884 30.1641 26.9368Z" fill="#00A650"/>
<path d="M44.7172 29.4701C44.0615 30.1257 43.5549 30.6621 43.5748 30.6621C43.6046 30.6621 44.1609 30.1257 44.8165 29.4701C45.4721 28.8144 45.9788 28.278 45.9589 28.278C45.9291 28.278 45.3728 28.8144 44.7172 29.4701Z" fill="#00A650"/>
<path d="M35.0804 29.9666C35.7361 30.6223 36.2924 31.1587 36.3222 31.1587C36.342 31.1587 35.8354 30.6223 35.1798 29.9666C34.5242 29.311 33.9679 28.7746 33.9381 28.7746C33.9182 28.7746 34.4248 29.311 35.0804 29.9666Z" fill="#00A650"/>
<path d="M14.3204 35.4501L10.0488 39.7515L14.3502 35.4799C16.7045 33.1356 18.6415 31.1985 18.6415 31.1886C18.6415 31.119 18.2939 31.4667 14.3204 35.4501Z" fill="#00A650"/>
<path d="M65.528 35.3804C67.8525 37.7049 69.7697 39.6023 69.7995 39.6023C69.8293 39.6023 67.9518 37.7049 65.6273 35.3804C63.3028 33.0559 61.3856 31.1586 61.3558 31.1586C61.326 31.1586 63.2035 33.0559 65.528 35.3804Z" fill="#00A650"/>
<path d="M42.1342 32.0527C42.0945 32.1123 42.025 32.1322 41.9753 32.0924C41.9256 32.0626 41.8958 32.0825 41.9058 32.1421C41.9256 32.1918 41.8462 32.311 41.7369 32.4004C41.5382 32.5593 41.5382 32.5593 41.7369 32.46C41.9455 32.3706 42.3627 31.9533 42.2535 31.9533C42.2237 31.9533 42.164 32.003 42.1342 32.0527Z" fill="#00A650"/>
<path d="M42.2734 32.5198C42.0946 32.7185 42.025 32.8278 42.1343 32.7483C42.2436 32.6688 42.3628 32.5596 42.3926 32.5198C42.4224 32.4702 42.4919 32.4304 42.5416 32.4205C42.6111 32.4006 42.7105 32.1523 42.6409 32.1523C42.631 32.1523 42.4621 32.3212 42.2734 32.5198Z" fill="#00A650"/>
<path d="M14.4197 44.6686C16.7144 46.9633 18.6118 48.8408 18.6416 48.8408C18.6714 48.8408 16.8138 46.9633 14.5191 44.6686C12.2244 42.3739 10.327 40.4964 10.2972 40.4964C10.2674 40.4964 12.125 42.3739 14.4197 44.6686Z" fill="#00A650"/>
<path d="M31.5957 41.1917C31.6056 41.2711 31.695 41.3506 31.8043 41.3605C31.9533 41.3705 31.9533 41.3605 31.8341 41.3307C31.7447 41.3009 31.6454 41.2215 31.6255 41.1619C31.6056 41.0923 31.5957 41.1122 31.5957 41.1917Z" fill="#00A650"/>
<path d="M39.0155 41.2613C39.0056 41.4997 38.9559 41.5891 38.7871 41.6189L38.5586 41.6587L38.7871 41.6785C39.0354 41.6885 39.1447 41.5196 39.0752 41.1719C39.0453 40.9931 39.0255 41.013 39.0155 41.2613Z" fill="#00A650"/>
<path d="M39.543 41.1917C39.5529 41.2711 39.6423 41.3506 39.7516 41.3605C39.9006 41.3705 39.9006 41.3605 39.7814 41.3307C39.692 41.3009 39.5926 41.2215 39.5728 41.1619C39.5529 41.0923 39.543 41.1122 39.543 41.1917Z" fill="#00A650"/>
<path d="M46.0885 41.3409C46.0885 41.5595 46.1084 41.639 46.1283 41.5098C46.1481 41.3906 46.1481 41.2118 46.1283 41.1125C46.0985 41.0231 46.0786 41.1224 46.0885 41.3409Z" fill="#00A650"/>
<path d="M37.9429 41.3606C38.0919 41.3805 38.3105 41.3805 38.4396 41.3606C38.5588 41.3407 38.4396 41.3209 38.1615 41.3209C37.8932 41.3209 37.784 41.3407 37.9429 41.3606Z" fill="#00A650"/>
<path d="M39.1354 43.8241C39.1354 44.0426 39.1553 44.1221 39.1751 43.993C39.195 43.8738 39.195 43.695 39.1751 43.5956C39.1453 43.5062 39.1255 43.6056 39.1354 43.8241Z" fill="#00A650"/>
<path d="M51.7506 46.2084C51.7506 46.4269 51.7705 46.5064 51.7904 46.3773C51.8102 46.2581 51.8102 46.0792 51.7904 45.9799C51.7606 45.8905 51.7407 45.9898 51.7506 46.2084Z" fill="#00A650"/>
<path d="M55.2266 46.258C55.2266 46.5063 55.2464 46.6057 55.2663 46.4765C55.2862 46.3573 55.2862 46.1586 55.2663 46.0295C55.2464 45.9103 55.2266 46.0096 55.2266 46.258Z" fill="#00A650"/>
<path d="M27.0254 47.4996C27.0254 48.2049 27.0353 48.483 27.0552 48.1155C27.0751 47.7479 27.0751 47.1618 27.0552 46.8241C27.0353 46.4863 27.0254 46.7843 27.0254 47.4996Z" fill="#00A650"/>
<path d="M35.7676 47.4998C35.7676 48.2051 35.7775 48.4833 35.7974 48.1157C35.8172 47.7482 35.8172 47.1621 35.7974 46.8243C35.7775 46.4866 35.7676 46.7846 35.7676 47.4998Z" fill="#00A650"/>
<path d="M45.3047 47.4998C45.3047 48.2051 45.3146 48.4833 45.3345 48.1157C45.3544 47.7482 45.3544 47.1621 45.3345 46.8243C45.3146 46.4866 45.3047 46.7846 45.3047 47.4998Z" fill="#00A650"/>
<path d="M47.8867 47.4998C47.8867 48.2051 47.8967 48.4833 47.9165 48.1157C47.9364 47.7482 47.9364 47.1621 47.9165 46.8243C47.8967 46.4866 47.8867 46.7846 47.8867 47.4998Z" fill="#00A650"/>
<path d="M55.9336 47.4996C55.9336 48.2049 55.9435 48.483 55.9634 48.1155C55.9833 47.7479 55.9833 47.1618 55.9634 46.8241C55.9435 46.4863 55.9336 46.7843 55.9336 47.4996Z" fill="#00A650"/>
<path d="M27.4824 47.8474C27.4824 48.354 27.5023 48.7513 27.5222 48.7315C27.5917 48.6619 27.6116 47.0527 27.542 46.9831C27.5122 46.9533 27.4824 47.3407 27.4824 47.8474Z" fill="#00A650"/>
<path d="M25.7942 54.255C29.1518 57.6126 31.9234 60.3643 31.9532 60.3643C31.983 60.3643 29.2512 57.6126 25.8936 54.255C22.5359 50.8974 19.7644 48.1457 19.7346 48.1457C19.7048 48.1457 22.4366 50.8974 25.7942 54.255Z" fill="#00A650"/>
<path d="M19.8828 55.119V60.1157H24.8795H29.8663L24.8994 60.0959L19.9325 60.0661L19.9027 55.0992L19.8828 50.1323V55.119Z" fill="#00A650"/>
<path d="M33.8194 55.3672C34.0479 55.387 34.4055 55.387 34.6141 55.3672C34.8128 55.3473 34.624 55.3274 34.1869 55.3274C33.7498 55.3274 33.581 55.3473 33.8194 55.3672Z" fill="#00A650"/>
<path d="M38.1601 55.397C38.1203 55.4566 38.1203 55.5361 38.1501 55.5659C38.18 55.6056 38.2098 55.5758 38.2098 55.5162C38.2098 55.3672 38.8654 55.3573 38.9349 55.4964C38.9647 55.556 38.9747 55.546 38.9647 55.4765C38.9349 55.3175 38.2495 55.248 38.1601 55.397Z" fill="#00A650"/>
<path d="M39.3829 55.3674C39.5021 55.3873 39.7007 55.3873 39.8299 55.3674C39.9491 55.3476 39.8497 55.3277 39.6014 55.3277C39.3531 55.3277 39.2537 55.3476 39.3829 55.3674Z" fill="#00A650"/>
<path d="M40.277 55.3672C40.3962 55.387 40.5751 55.387 40.6744 55.3672C40.7638 55.3374 40.6645 55.3175 40.4459 55.3274C40.2274 55.3274 40.1479 55.3473 40.277 55.3672Z" fill="#00A650"/>
<path d="M41.2692 55.3674C41.3884 55.3873 41.5672 55.3873 41.6666 55.3674C41.756 55.3376 41.6566 55.3178 41.4381 55.3277C41.2196 55.3277 41.1401 55.3476 41.2692 55.3674Z" fill="#00A650"/>
<path d="M42.1553 55.3672C42.3342 55.387 42.652 55.387 42.8507 55.3672C43.0593 55.3473 42.9203 55.3274 42.5328 55.3274C42.1553 55.3274 41.9865 55.3473 42.1553 55.3672Z" fill="#00A650"/>
<path d="M44.8958 55.3772C45.0448 55.3971 45.164 55.4666 45.164 55.5262C45.164 55.6156 45.1839 55.6156 45.2435 55.5262C45.2832 55.4567 45.6309 55.3871 46.0581 55.3673C46.5547 55.3474 46.4355 55.3375 45.7104 55.3375C45.1143 55.3375 44.7369 55.3573 44.8958 55.3772Z" fill="#00A650"/>
<path d="M40.9025 55.8341L40.6641 56.1421L40.9422 55.8739C41.1011 55.7249 41.2104 55.5858 41.1806 55.5659C41.1608 55.5361 41.0316 55.6653 40.9025 55.8341Z" fill="#00A650"/>
<path d="M34.3672 56.1917C34.3672 56.5493 34.3871 56.6884 34.4069 56.5096C34.4268 56.3407 34.4268 56.0427 34.4069 55.8639C34.3871 55.695 34.3672 55.8341 34.3672 56.1917Z" fill="#00A650"/>
<path d="M42.0156 56.1917C42.0156 56.5493 42.0355 56.6884 42.0554 56.5096C42.0752 56.3407 42.0752 56.0427 42.0554 55.8639C42.0355 55.695 42.0156 55.8341 42.0156 56.1917Z" fill="#00A650"/>
<path d="M44.9961 56.2414C44.9961 56.6189 45.016 56.7679 45.0358 56.5593C45.0557 56.3606 45.0557 56.0427 45.0358 55.8639C45.016 55.6951 44.9961 55.854 44.9961 56.2414Z" fill="#00A650"/>
<path d="M46.1875 56.1917C46.1875 56.5493 46.2074 56.6884 46.2272 56.5096C46.2471 56.3407 46.2471 56.0427 46.2272 55.8639C46.2074 55.695 46.1875 55.8341 46.1875 56.1917Z" fill="#00A650"/>
<path d="M38.717 56.5096C38.7368 56.8076 38.7368 56.8076 38.7766 56.5692C38.8064 56.3507 38.8759 56.2911 39.1342 56.2613C39.4421 56.2215 39.4421 56.2215 39.0845 56.2116C38.717 56.1917 38.707 56.2017 38.717 56.5096Z" fill="#00A650"/>
<path d="M42.5117 59.8175C42.5117 60.2545 42.5316 60.4234 42.5515 60.185C42.5713 59.9565 42.5713 59.5989 42.5515 59.3903C42.5316 59.1916 42.5117 59.3804 42.5117 59.8175Z" fill="#00A650"/>
<path d="M52.6446 60.1355C54.0552 60.1554 56.3399 60.1554 57.7108 60.1355C59.0916 60.1256 57.9393 60.1156 55.1479 60.1156C52.3664 60.1156 51.234 60.1256 52.6446 60.1355Z" fill="#00A650"/>
<path d="M37.1983 60.8308C37.4268 60.8507 37.7844 60.8507 37.993 60.8308C38.1917 60.8109 38.0029 60.7911 37.5658 60.7911C37.1288 60.7911 36.9599 60.8109 37.1983 60.8308Z" fill="#00A650"/>
<path d="M40.6749 60.8308C40.9033 60.8507 41.2609 60.8507 41.4696 60.8308C41.6682 60.8109 41.4795 60.7911 41.0424 60.7911C40.6053 60.7911 40.4364 60.8109 40.6749 60.8308Z" fill="#00A650"/>
<path d="M42.5119 60.8308C42.6609 60.8507 42.8993 60.8507 43.0582 60.8308C43.2072 60.8109 43.0781 60.7911 42.7801 60.7911C42.4821 60.7911 42.3529 60.8109 42.5119 60.8308Z" fill="#00A650"/>
<path d="M35.3784 65.6289C37.7228 67.9832 39.6698 69.9004 39.6996 69.9004C39.7294 69.9004 37.8222 67.9832 35.4778 65.6289C33.1334 63.2746 31.1864 61.3573 31.1566 61.3573C31.1268 61.3573 33.0341 63.2746 35.3784 65.6289Z" fill="#00A650"/>
<path d="M35.4785 14.371L31.2069 18.6425H25.1374H19.0679L18.8592 18.871L18.6407 19.0995V25.1591V31.2087L14.3692 35.4802C10.9917 38.8577 10.0977 39.8014 10.0977 40.0001C10.0977 40.1988 10.9917 41.1425 14.3692 44.52L18.6407 48.7915V54.8511C18.6407 60.8213 18.6407 60.9306 18.8394 61.1392L19.048 61.3577H25.1275H31.2069L35.5381 65.6889C39.4023 69.5432 39.899 70.01 40.1076 69.9504C40.2367 69.9107 42.2732 67.9637 44.6175 65.6193L48.889 61.3577H54.899C60.1838 61.3577 60.9387 61.3379 61.1374 61.1988L61.3559 61.0498V54.9703V48.8908L65.5381 44.7187C67.8328 42.424 69.7798 40.4273 69.8592 40.2783C69.9288 40.1293 69.9685 39.9504 69.9487 39.8809C69.9188 39.8014 67.9718 37.8246 65.6275 35.4802L61.3559 31.2087V25.1293C61.3559 19.169 61.3559 19.0399 61.1573 18.8412C60.9586 18.6425 60.8294 18.6425 54.8692 18.6425H48.7798L44.5182 14.371C41.1208 10.9736 40.2069 10.0995 39.9983 10.0995C39.7996 10.0995 38.8758 10.9736 35.4785 14.371ZM54.2533 25.7948L68.4586 40.0001L54.2235 54.2352L39.9983 68.4604L25.7732 54.2253L11.5381 40.0001L25.7434 25.7948C33.5513 17.9769 39.9685 11.5895 39.9983 11.5895C40.0281 11.5895 46.4453 17.9869 54.2533 25.7948ZM29.7665 19.9637C29.7665 19.9736 27.5314 22.2187 24.7996 24.9504L19.8328 29.9173V24.9206V19.9339H24.7996C27.5314 19.9339 29.7665 19.9438 29.7665 19.9637ZM60.1639 24.9008C60.1639 27.6326 60.1539 29.8677 60.1341 29.8677C60.1241 29.8677 57.8791 27.6326 55.1473 24.9008L50.1804 19.9339H55.1771H60.1639V24.9008ZM24.9785 60.1458C22.2864 60.1557 20.0215 60.1458 19.9619 60.116C19.8626 60.0862 19.8328 58.9836 19.8328 55.0796V50.0829L24.8493 55.0995L29.8659 60.116L24.9785 60.1458ZM60.1639 55.1491V60.1657H55.1275H50.0811L55.0977 55.1491C57.8592 52.3875 60.1241 50.1326 60.1341 50.1326C60.1539 50.1326 60.1639 52.3875 60.1639 55.1491Z" fill="#00A650"/>
<path d="M26.4087 26.3906C18.9683 33.821 12.8789 39.9502 12.8789 40.0197C12.8789 40.0893 18.9782 46.2482 26.4385 53.7085L39.9981 67.2681L53.6272 53.629L67.2663 39.9999L53.7067 26.4403C46.2465 18.98 40.1074 12.8807 40.0478 12.8807C39.9981 12.8906 33.859 18.9701 26.4087 26.3906ZM53.4087 26.6389L66.7696 39.9999L53.3789 53.3906L39.9981 66.7714L26.6173 53.3906L13.2266 39.9999L26.5875 26.6389C33.9385 19.2879 39.9683 13.278 39.9981 13.278C40.0279 13.278 46.0577 19.2879 53.4087 26.6389Z" fill="#00A650"/>
<path d="M39.1531 22.9833C36.024 23.1721 32.6961 24.6224 30.4114 26.778C29.0206 28.0992 28.2657 29.0827 27.3418 30.7714C26.8749 31.6456 26.0902 33.6919 26.0902 34.0396C26.0902 34.2184 26.0206 34.2383 25.1564 34.2383C24.1233 34.2383 24.1034 34.2482 24.1034 34.9138C24.1034 36.5231 22.7922 38.3012 21.5206 38.4403C21.1531 38.4899 20.9743 38.6389 21.0538 38.8575C21.1134 38.9966 21.8087 39.0065 28.3948 38.9866L35.6763 38.9568L36.2922 38.6985C37.1763 38.3111 38.1597 37.6456 39.163 36.7416L40.0571 35.9469L40.3054 36.2052C41.2491 37.2085 42.8087 38.3211 43.822 38.7184L44.418 38.9568L51.6398 38.9866C58.822 39.0164 58.8617 39.0164 58.971 38.8078C59.0604 38.6389 59.0405 38.5893 58.822 38.5098C58.673 38.4502 58.4942 38.4105 58.4147 38.4105C58.1167 38.4105 57.5802 38.1125 57.1432 37.7151C56.4478 37.0793 55.9809 35.927 55.8716 34.586L55.8418 34.288L54.9279 34.2582L54.014 34.2283L53.7061 33.225C53.0206 31.0396 51.6398 28.7846 49.9312 27.086C47.5571 24.7217 44.4776 23.3111 41.1001 23.0231C40.1465 22.9436 39.9081 22.9436 39.1531 22.9833ZM39.7889 27.8509C39.7889 30.2449 39.769 32.1522 39.7491 32.1025C39.7193 32.0429 39.62 31.5562 39.5107 31.0098C39.4014 30.4634 39.1034 29.033 38.8551 27.831C38.2193 24.7515 38.0107 23.7383 38.0107 23.6787C38.0107 23.6091 38.5471 23.5495 39.2822 23.5297L39.7988 23.5098L39.7889 27.8509ZM41.9644 23.6588C41.9942 23.6886 41.8054 24.7217 41.5471 25.9634C40.4445 31.3774 40.3153 32.0131 40.2657 32.2019C40.2458 32.3111 40.216 30.3939 40.2061 27.9403L40.1961 23.48L41.0604 23.5495C41.5372 23.5793 41.9445 23.629 41.9644 23.6588ZM37.6134 23.778C37.6134 23.8277 37.7326 24.3939 37.8617 25.0495C38.0008 25.7052 38.2491 26.8873 38.4081 27.682C38.567 28.4767 38.8352 29.788 39.0041 30.5926C39.163 31.3972 39.3021 32.0926 39.3021 32.1323C39.2922 32.3111 39.0836 31.8244 36.8087 26.3906C36.4312 25.4866 36.0538 24.6224 35.9743 24.4535C35.8153 24.1058 35.8451 24.086 36.8683 23.8575C37.6233 23.6886 37.6134 23.6985 37.6134 23.778ZM43.3352 23.9171C43.7624 24.0264 44.1299 24.1356 44.1398 24.1456C44.1597 24.1654 43.5538 25.6356 42.2425 28.725C41.8153 29.7085 41.3187 30.9005 41.12 31.3774C40.9213 31.8641 40.7425 32.2416 40.7326 32.2217C40.7028 32.1919 41.5074 28.1687 42.0339 25.6952C42.1829 25.0098 42.322 24.2846 42.3518 24.076C42.3816 23.8774 42.4412 23.7085 42.471 23.7085C42.5107 23.7085 42.8981 23.7979 43.3352 23.9171ZM36.2624 26.1721C36.6995 27.1952 37.3849 28.8144 37.7822 29.7681C38.1895 30.7217 38.5571 31.5959 38.6067 31.7052C38.7458 32.0032 38.9047 32.4502 38.8749 32.4502C38.8551 32.4502 38.5273 32.0032 38.1498 31.4568C37.7723 30.9005 37.216 30.1058 36.918 29.6787C36.62 29.2515 36.0637 28.437 35.6763 27.8906C35.2988 27.3343 34.6928 26.48 34.3451 25.9833C33.9975 25.4966 33.7293 25.0694 33.7591 25.0495C33.8286 24.9701 35.2789 24.3144 35.3783 24.3144C35.4379 24.3144 35.8352 25.1489 36.2624 26.1721ZM45.4312 24.6522C45.8981 24.8509 46.2061 25.0495 46.1961 25.129C46.1862 25.2085 45.7293 25.9138 45.1829 26.6985C44.12 28.2283 43.7127 28.8144 42.0935 31.1588C41.5273 31.9734 41.0504 32.6489 41.0405 32.6489C41.0206 32.6489 41.3187 31.9237 41.7061 31.0297C42.0836 30.1456 42.6597 28.7747 42.9875 27.98C43.3153 27.1853 43.7425 26.2019 43.9213 25.7946C44.1001 25.3873 44.3187 24.8807 44.4081 24.6721C44.4875 24.4734 44.5769 24.3045 44.6067 24.3045C44.6365 24.3045 45.0041 24.4634 45.4312 24.6522ZM34.0173 26.2217C34.365 26.7283 35.1995 27.9204 35.865 28.874C36.5306 29.8277 37.3749 31.0595 37.7524 31.6058L38.4279 32.5992L37.5041 31.6853C36.9875 31.1886 35.5173 29.7482 34.2359 28.4866L31.9014 26.1919L32.1498 26.0231C32.7458 25.5959 33.2028 25.3178 33.2922 25.3078C33.3518 25.3078 33.6796 25.7151 34.0173 26.2217ZM47.418 25.7052C47.7657 25.9336 48.0438 26.1423 48.0438 26.182C48.0438 26.2615 41.7359 32.5495 41.6564 32.5495C41.6067 32.5495 42.1034 31.8045 43.4346 29.9171C43.6233 29.6389 44.2392 28.7449 44.8153 27.9303C45.3816 27.1058 45.9279 26.331 46.0372 26.1919C46.1365 26.0529 46.3054 25.7946 46.4048 25.6158C46.514 25.4469 46.6432 25.2979 46.6928 25.2979C46.7425 25.2979 47.0703 25.4866 47.418 25.7052ZM34.812 29.629C36.5405 31.3575 37.8518 32.7085 37.7127 32.629C37.5736 32.5396 37.0273 32.1721 36.5008 31.7946C35.3087 30.9502 33.7591 29.8674 32.2392 28.8244C31.6034 28.3873 30.9379 27.9105 30.7491 27.7615L30.4114 27.4833L30.9577 26.9866C31.2557 26.7184 31.5339 26.4899 31.5836 26.4899C31.6233 26.4899 33.0736 27.9005 34.812 29.629ZM49.0968 27.0164L49.6531 27.533L49.2756 27.7913C48.769 28.129 45.8882 30.1356 44.0206 31.4568C43.2061 32.033 42.4014 32.5893 42.2326 32.6886C42.0736 32.788 43.3849 31.437 45.163 29.6787C46.9412 27.9303 48.4213 26.4899 48.461 26.4899C48.5008 26.4899 48.7789 26.7283 49.0968 27.0164ZM30.5902 28.1489C30.7889 28.3078 31.4047 28.735 31.9511 29.1224C33.1034 29.9171 34.4346 30.8409 34.9014 31.1787C35.0802 31.3078 35.7359 31.7648 36.3617 32.2019C36.9875 32.6389 37.4942 33.0065 37.4743 33.0164C37.4644 33.0264 37.0273 32.8376 36.5107 32.5893C35.9942 32.331 35.0902 31.8939 34.4842 31.6058C33.8882 31.3178 32.8153 30.8012 32.1001 30.4634C31.3948 30.1257 30.4213 29.6588 29.9445 29.4303L29.0802 29.0131L29.5173 28.4469C29.7657 28.1389 30.024 27.8807 30.1034 27.8807C30.173 27.8807 30.3915 27.9999 30.5902 28.1489ZM50.4875 28.427C50.7458 28.735 50.9346 28.9932 50.9147 29.0131C50.8948 29.033 50.2988 29.331 49.5836 29.6687C48.8783 30.0065 47.7359 30.5529 47.0504 30.8807C46.365 31.2085 45.2922 31.725 44.6663 32.0231C44.0405 32.331 43.3054 32.6787 43.0372 32.8178C42.7789 32.9469 42.5802 33.0164 42.62 32.9668C42.6498 32.9171 43.4644 32.331 44.4379 31.6555C45.4114 30.98 46.7226 30.0661 47.3485 29.6191C48.7889 28.586 49.8518 27.8807 49.9412 27.8807C49.9809 27.8807 50.2293 28.129 50.4875 28.427ZM29.9346 29.8774C30.5206 30.1654 31.7922 30.7714 32.7458 31.2283C33.6995 31.6952 35.1001 32.3608 35.8451 32.7283C36.6001 33.086 37.2061 33.3939 37.1862 33.4038C37.1763 33.4237 36.5802 33.2548 35.8749 33.0462C35.1597 32.8277 33.1332 32.2217 31.3551 31.6952C29.5769 31.1687 28.0968 30.7118 28.067 30.6721C28.0074 30.6224 28.7326 29.3707 28.822 29.3707C28.8418 29.3707 29.3385 29.5992 29.9346 29.8774ZM51.62 29.9866C51.8385 30.3244 51.9875 30.6323 51.9478 30.6621C51.8981 30.7019 51.1531 30.9502 50.2789 31.2085C49.4047 31.4668 48.173 31.8343 47.5471 32.0231C45.1233 32.7582 42.8286 33.4237 42.8087 33.4038C42.7988 33.3939 43.1564 33.2052 43.6034 32.9966C44.6862 32.48 46.7524 31.4966 49.1862 30.3244C50.2789 29.7979 51.1829 29.3707 51.2028 29.3707C51.2127 29.3707 51.4014 29.6489 51.62 29.9866ZM29.0405 31.4171C29.6862 31.6158 30.8584 31.9634 31.6531 32.2019C35.6365 33.384 36.918 33.7813 36.8882 33.8111C36.8385 33.8509 27.2723 32.48 27.2127 32.4105C27.1531 32.3608 27.7392 31.0595 27.8187 31.0595C27.8485 31.0595 28.3948 31.2184 29.0405 31.4171ZM52.5736 31.725C52.7425 32.1025 52.8617 32.4105 52.822 32.4204C52.7425 32.4502 49.9908 32.8674 47.2988 33.2449C46.1564 33.4038 44.7458 33.6125 44.1796 33.6919C43.6134 33.7813 43.1365 33.831 43.1167 33.8111C43.0968 33.8012 44.3187 33.4138 45.8385 32.9568C47.3485 32.5098 49.3749 31.8939 50.3286 31.6058C51.2822 31.3178 52.1167 31.0694 52.1663 31.0694C52.2259 31.0595 52.4047 31.3575 52.5736 31.725ZM31.9014 33.533L36.5703 34.2184L31.5736 34.2283C26.8551 34.2383 26.5769 34.2283 26.6266 34.0595C26.6564 33.9701 26.7259 33.6919 26.7855 33.4436C26.9246 32.9072 26.9644 32.8476 27.1134 32.8476C27.1829 32.8575 29.3286 33.1654 31.9014 33.533ZM53.2392 33.4436C53.3286 33.7615 53.4081 34.0793 53.4081 34.1389C53.4081 34.2085 51.8385 34.2383 48.471 34.2283L43.524 34.2184L48.1432 33.5429C50.6862 33.1654 52.8319 32.8575 52.9114 32.8575C53.0107 32.8476 53.12 33.0462 53.2392 33.4436ZM55.4942 35.0628C55.4942 36.0065 56.0604 37.2681 56.8153 38.033L57.2922 38.5098L50.8054 38.4899L44.3187 38.4601L43.6332 38.1323C42.7491 37.7151 41.9047 37.1091 40.9114 36.1754C40.4743 35.7681 40.0571 35.4303 39.9776 35.4303C39.9081 35.4303 39.5802 35.6985 39.2524 36.0363C38.4577 36.8409 37.2756 37.725 36.4511 38.1323L35.7756 38.4601L29.2491 38.4899L22.7226 38.5197L23.2392 37.9932C23.9644 37.2581 24.3418 36.4336 24.5504 35.1025L24.61 34.735H40.0471H55.4942V35.0628Z" fill="#00A650"/>
<path d="M25.8926 36.722C25.8926 36.7915 27.631 36.8213 30.9091 36.8213C34.1873 36.8213 35.9257 36.7915 35.9257 36.722C35.9257 36.6524 34.1873 36.6226 30.9091 36.6226C27.631 36.6226 25.8926 36.6524 25.8926 36.722Z" fill="#00A650"/>
<path d="M43.9226 36.722C43.9623 36.7816 45.7404 36.8213 48.9491 36.8213C52.1875 36.8213 53.906 36.7915 53.906 36.722C53.906 36.6524 52.1676 36.6226 48.8795 36.6226C45.5616 36.6226 43.8828 36.6524 43.9226 36.722Z" fill="#00A650"/>
<path d="M39.6404 37.288C39.4715 37.4966 39.3026 37.7152 39.2629 37.7847C39.1934 37.9039 39.8589 38.9072 40.0079 38.9072C40.1172 38.9072 40.7927 38.0629 40.7927 37.9238C40.7927 37.7946 40.3258 37.1291 40.147 36.9999C39.9881 36.8807 39.9483 36.9006 39.6404 37.288Z" fill="#00A650"/>
<path d="M28.7241 41.0531C27.6513 41.5895 27.6314 43.4769 28.6943 44.0332C29.1115 44.2617 30.0751 44.2518 30.4228 44.0233C31.2076 43.5067 31.3665 42.126 30.7208 41.4008C30.2837 40.914 29.3301 40.7452 28.7241 41.0531ZM30.0751 41.5498C30.2837 41.7683 30.3135 41.8975 30.3135 42.5134C30.3135 43.5763 29.8665 44.0829 29.2109 43.7849C28.595 43.5067 28.4857 42.0763 29.042 41.4703C29.2804 41.2021 29.787 41.2418 30.0751 41.5498Z" fill="#00A650"/>
<path d="M47.2498 42.2549C46.9617 43.0099 46.6637 43.6754 46.5942 43.735C46.5147 43.7946 46.4551 43.9238 46.4551 44.0132C46.4551 44.1324 46.5544 44.1721 46.9021 44.1721C47.2796 44.1721 47.3491 44.1423 47.3491 43.9734C47.3491 43.8642 47.2796 43.7748 47.2001 43.7748C47.0809 43.7748 47.071 43.735 47.1703 43.5264C47.2696 43.2979 47.3392 43.2781 47.9054 43.2781C48.4518 43.2781 48.5312 43.3079 48.5908 43.4867C48.6405 43.6258 48.6008 43.735 48.4816 43.8145C48.1935 44.033 48.422 44.1721 49.0478 44.1721C49.5246 44.1721 49.6339 44.1423 49.6339 44.0132C49.6339 43.9238 49.5743 43.7946 49.4948 43.735C49.3756 43.6456 48.9981 42.7615 48.5213 41.4403C48.3624 41.0132 48.2531 40.894 47.9948 40.894C47.8061 40.894 47.7067 41.0728 47.2498 42.2549ZM48.1339 42.3542L48.3425 42.8807H47.8855C47.4683 42.8807 47.4385 42.8609 47.5081 42.6622C47.6273 42.2748 47.8557 41.7681 47.8955 41.7979C47.9153 41.8178 48.0246 42.0761 48.1339 42.3542Z" fill="#00A650"/>
<path d="M31.6523 41.1426C31.6523 41.222 31.7219 41.2916 31.8014 41.2916C31.9305 41.2916 31.9504 41.5002 31.9504 42.5333C31.9504 43.5664 31.9305 43.775 31.8014 43.775C31.7219 43.775 31.6523 43.8644 31.6523 43.9737C31.6523 44.1525 31.7219 44.1724 32.2484 44.1724C32.7749 44.1724 32.8444 44.1525 32.8444 43.9737C32.8444 43.8644 32.8047 43.775 32.7451 43.775C32.6954 43.775 32.6457 43.5465 32.6457 43.2783C32.6457 43.0002 32.6855 42.7816 32.7351 42.7816C32.7848 42.7816 33.0133 43.0896 33.2417 43.477C33.659 44.1724 33.6689 44.1724 34.0961 44.1724C34.4636 44.1724 34.5331 44.1426 34.5331 43.9737C34.5331 43.8644 34.4735 43.775 34.404 43.775C34.2947 43.775 33.5398 42.871 33.5398 42.7419C33.5398 42.7121 33.649 42.583 33.7881 42.4439C34.1457 42.0863 34.1358 41.4803 33.7782 41.2022C33.5497 41.0234 33.3709 40.9936 32.5861 40.9936C31.8212 40.9936 31.6523 41.0234 31.6523 41.1426ZM33.3212 41.7883C33.351 42.2154 33.2715 42.3445 32.9139 42.434L32.6457 42.5035V41.9075V41.3214L32.9735 41.381C33.2517 41.4406 33.2914 41.4902 33.3212 41.7883Z" fill="#00A650"/>
<path d="M34.9336 41.1426C34.9336 41.222 35.0031 41.2916 35.0826 41.2916C35.2117 41.2916 35.2316 41.5002 35.2316 42.5333C35.2316 43.5664 35.2117 43.775 35.0826 43.775C35.0031 43.775 34.9336 43.8644 34.9336 43.9737C34.9336 44.1525 35.0031 44.1724 35.5793 44.1724C36.1554 44.1724 36.225 44.1525 36.225 43.9737C36.225 43.8644 36.1554 43.775 36.076 43.775C35.9468 43.775 35.927 43.5664 35.927 42.5333C35.927 41.5002 35.9468 41.2916 36.076 41.2916C36.1554 41.2916 36.225 41.222 36.225 41.1426C36.225 41.0234 36.0859 40.9936 35.5793 40.9936C35.0727 40.9936 34.9336 41.0234 34.9336 41.1426Z" fill="#00A650"/>
<path d="M36.7207 41.1426C36.7207 41.222 36.7902 41.2916 36.8697 41.2916C36.9988 41.2916 37.0187 41.5002 37.0187 42.5333C37.0187 43.5664 36.9988 43.775 36.8697 43.775C36.7902 43.775 36.7207 43.8644 36.7207 43.9737C36.7207 44.1624 36.7902 44.1724 37.9128 44.1724H39.1048V43.775C39.1048 43.477 39.0651 43.3777 38.9459 43.3777C38.8565 43.3777 38.7671 43.4671 38.7373 43.5763C38.6975 43.7452 38.5982 43.775 38.2008 43.775H37.7141V43.2287C37.7141 42.6922 37.7141 42.6823 38.0121 42.6823C38.181 42.6823 38.3101 42.722 38.3101 42.7816C38.3101 42.8313 38.3995 42.881 38.5088 42.881C38.6777 42.881 38.7075 42.8114 38.7075 42.4836C38.7075 42.2055 38.6677 42.0863 38.5684 42.0863C38.4889 42.0863 38.3896 42.126 38.3598 42.1856C38.33 42.2353 38.171 42.2849 38.0022 42.2849C37.724 42.2849 37.7141 42.275 37.7141 41.7883V41.2916H38.1611C38.4889 41.2916 38.6081 41.3313 38.6081 41.4406C38.6081 41.52 38.6975 41.5896 38.8068 41.5896C38.9657 41.5896 39.0055 41.52 39.0055 41.2916V40.9936H37.8631C36.9094 40.9936 36.7207 41.0234 36.7207 41.1426Z" fill="#00A650"/>
<path d="M39.6016 41.1426C39.6016 41.222 39.6711 41.2916 39.7506 41.2916C39.8797 41.2916 39.8996 41.5002 39.8996 42.5333C39.8996 43.5664 39.8797 43.775 39.7506 43.775C39.6711 43.775 39.6016 43.8644 39.6016 43.9737C39.6016 44.1525 39.6711 44.1724 40.1479 44.1724C40.6247 44.1724 40.6943 44.1525 40.6943 43.9737C40.6943 43.8644 40.6247 43.775 40.5453 43.775C40.4261 43.775 40.3963 43.6161 40.3963 42.9108V42.0366L40.6545 42.434C41.479 43.6657 41.9062 44.1724 42.1446 44.1724H42.383V42.732C42.383 41.52 42.4029 41.2916 42.532 41.2916C42.6115 41.2916 42.681 41.222 42.681 41.1426C42.681 41.0234 42.5519 40.9936 42.1347 40.9936C41.7175 40.9936 41.5883 41.0234 41.5883 41.1426C41.5883 41.222 41.6579 41.2916 41.7373 41.2916C41.8565 41.2916 41.8863 41.4604 41.8863 42.1955C41.8863 43.2485 41.9757 43.2783 40.9526 41.8081C40.3963 41.0234 40.3665 40.9936 39.989 40.9936C39.7108 40.9936 39.6016 41.0333 39.6016 41.1426Z" fill="#00A650"/>
<path d="M43.0781 41.3412C43.0781 41.6194 43.1179 41.6889 43.2768 41.6889C43.3861 41.6889 43.4755 41.6194 43.4755 41.5399C43.4755 41.4306 43.5847 41.3909 43.8728 41.3909H44.2702V42.583C44.2702 43.5763 44.2503 43.775 44.1212 43.775C44.0417 43.775 43.9722 43.8644 43.9722 43.9737C43.9722 44.1525 44.0417 44.1724 44.6179 44.1724C45.194 44.1724 45.2636 44.1525 45.2636 43.9737C45.2636 43.8644 45.194 43.775 45.1145 43.775C44.9953 43.775 44.9655 43.5763 44.9655 42.583V41.3909H45.3728C45.6907 41.3909 45.7702 41.4207 45.7205 41.5399C45.6808 41.6393 45.7304 41.6889 45.8596 41.6889C46.0185 41.6889 46.0583 41.6194 46.0583 41.3412V40.9936H44.5682H43.0781V41.3412Z" fill="#00A650"/>
<path d="M49.9336 41.1424C49.9336 41.2219 50.023 41.2914 50.1323 41.2914C50.321 41.2914 50.3309 41.3609 50.3309 42.5232C50.3309 43.6854 50.321 43.755 50.1223 43.8046C50.0031 43.8344 49.9336 43.9239 49.9535 43.9934C49.9833 44.0927 50.321 44.1325 51.2151 44.1523L52.427 44.1821L52.3972 43.8146C52.3674 43.3974 52.1389 43.2384 52.0495 43.5662C52.0098 43.745 51.9203 43.7748 51.5131 43.7748H51.0263V42.5331C51.0263 41.5 51.0462 41.2914 51.1753 41.2914C51.2548 41.2914 51.3243 41.2219 51.3243 41.1424C51.3243 41.0232 51.1852 40.9934 50.629 40.9934C50.0727 40.9934 49.9336 41.0232 49.9336 41.1424Z" fill="#00A650"/>
<path d="M42.4623 45.8511C41.8663 45.9802 41.5385 46.5663 41.7968 47.0431C41.8762 47.1822 42.1941 47.4703 42.512 47.6789C42.9789 47.9968 43.0782 48.106 43.0782 48.3444C43.0782 48.8809 42.2736 48.9901 42.0849 48.4835C41.9259 48.0862 41.6875 48.1855 41.6875 48.6425C41.6875 48.9802 41.7272 49.0497 41.9358 49.0994C42.0749 49.1391 42.4425 49.1391 42.7405 49.1193C43.4557 49.0597 43.7736 48.7716 43.7736 48.1855C43.7736 47.7385 43.7438 47.6987 42.81 47.0431C42.363 46.7451 42.2736 46.4769 42.5319 46.2583C42.7305 46.0895 43.1875 46.2186 43.2471 46.467C43.2769 46.5862 43.3663 46.6557 43.4656 46.6358C43.6643 46.5961 43.7438 45.9802 43.555 45.9206C43.2769 45.8312 42.7206 45.8014 42.4623 45.8511Z" fill="#00A650"/>
<path d="M23.2109 46.0599C23.2109 46.1691 23.2805 46.2585 23.3599 46.2585C23.4791 46.2585 23.509 46.4374 23.509 47.2619C23.509 48.444 23.658 48.8711 24.1248 49.0301C24.85 49.2883 25.6546 49.0797 25.8732 48.593C25.9427 48.444 25.9924 47.8877 25.9924 47.3016C25.9924 46.4374 26.0222 46.2585 26.1414 46.2585C26.2209 46.2585 26.2904 46.1691 26.2904 46.0599C26.2904 45.8711 26.2407 45.8513 25.7242 45.8811C25.1381 45.9109 24.8798 46.1195 25.297 46.2287C25.5056 46.2883 25.5156 46.3281 25.4758 47.3612C25.446 48.5533 25.3467 48.7619 24.8401 48.7619C24.3335 48.7619 24.2043 48.4539 24.2043 47.2917C24.2043 46.4374 24.2341 46.2585 24.3533 46.2585C24.4328 46.2585 24.5023 46.1691 24.5023 46.0599C24.5023 45.8811 24.4328 45.8612 23.8566 45.8612C23.2805 45.8612 23.2109 45.8811 23.2109 46.0599Z" fill="#00A650"/>
<path d="M26.7371 45.9505C26.6577 46.0895 26.7669 46.2584 26.9457 46.2584C27.055 46.2584 27.0848 46.4869 27.0848 47.5001C27.0848 48.6922 27.0749 48.7418 26.8762 48.7418C26.7371 48.7418 26.6875 48.7915 26.7073 48.9107C26.7272 49.0498 26.8563 49.0995 27.2437 49.1193C27.6908 49.1491 27.7603 49.1193 27.81 48.9405C27.8497 48.7915 27.81 48.7418 27.6709 48.7418C27.502 48.7418 27.4822 48.6624 27.4822 47.818C27.4921 46.8048 27.4325 46.8048 28.0981 47.7783C28.9226 48.9703 29.0815 49.1491 29.3 49.1193C29.5087 49.0895 29.5186 49.0399 29.5484 47.669C29.5683 46.4769 29.5981 46.2584 29.7272 46.2584C29.8166 46.2584 29.8663 46.1889 29.8464 46.0796C29.8265 45.9505 29.6974 45.9008 29.2901 45.8809C28.8232 45.8511 28.7736 45.871 28.7736 46.0498C28.7736 46.169 28.8431 46.2584 28.9226 46.2584C29.0418 46.2584 29.0716 46.4273 29.0616 47.1723C29.0616 48.0763 29.0616 48.0862 28.8928 47.8478C27.6014 45.9902 27.5418 45.9107 27.1643 45.8809C26.9656 45.861 26.7769 45.9008 26.7371 45.9505Z" fill="#00A650"/>
<path d="M30.3326 45.9304C30.2035 46.0496 30.2631 46.2582 30.4121 46.2582C30.5412 46.2582 30.5611 46.4668 30.5611 47.5C30.5611 48.5629 30.5412 48.7417 30.4022 48.7417C30.3128 48.7417 30.2631 48.8112 30.283 48.9105C30.3128 49.0596 30.422 49.0894 30.9585 49.0894C31.4949 49.0894 31.6041 49.0596 31.6339 48.9105C31.6538 48.8112 31.6041 48.7417 31.5147 48.7417C31.3757 48.7417 31.3558 48.5629 31.3558 47.5C31.3558 46.4668 31.3757 46.2582 31.5048 46.2582C31.5843 46.2582 31.6538 46.1688 31.6538 46.0596C31.6538 45.8807 31.5843 45.8609 31.028 45.8609C30.6803 45.8609 30.3624 45.8907 30.3326 45.9304Z" fill="#00A650"/>
<path d="M32.0508 46.0396C32.0508 46.1489 32.1104 46.2582 32.1799 46.288C32.2495 46.3178 32.3587 46.4867 32.4183 46.6655C32.4779 46.8542 32.7263 47.4701 32.9647 48.0463C33.5508 49.4767 33.6104 49.4668 34.3157 47.6986C34.6137 46.9337 34.9316 46.2582 35.011 46.1986C35.2395 46.0297 35.0607 45.8608 34.6336 45.8608C34.1965 45.8608 34.0276 46.0297 34.2759 46.2085C34.4349 46.3277 34.415 46.3973 34.117 47.1423C33.9382 47.5893 33.7693 47.9469 33.7395 47.9469C33.7097 47.9469 33.5508 47.5992 33.3918 47.182C33.223 46.7648 33.0839 46.3873 33.064 46.3377C33.0442 46.2979 33.1038 46.2582 33.1932 46.2582C33.2925 46.2582 33.3422 46.1887 33.3223 46.0794C33.2925 45.9403 33.1634 45.9006 32.6667 45.8807C32.1104 45.8509 32.0508 45.8708 32.0508 46.0396Z" fill="#00A650"/>
<path d="M35.4793 45.9605C35.3998 46.0995 35.5091 46.2585 35.6879 46.2585C35.7972 46.2585 35.827 46.487 35.827 47.5002C35.827 48.6922 35.8171 48.7419 35.6184 48.7419C35.4793 48.7419 35.4296 48.7916 35.4495 48.9108C35.4793 49.0697 35.6184 49.0896 36.6714 49.0896H37.8634L37.8932 48.7121C37.923 48.3942 37.8932 48.3446 37.7243 48.3446C37.6051 48.3446 37.5157 48.4141 37.5157 48.4936C37.5157 48.6028 37.3965 48.6426 37.0191 48.6426H36.5224V48.1459C36.5224 47.6591 36.5323 47.6492 36.8104 47.6492C36.9694 47.6492 37.1184 47.6989 37.1383 47.7684C37.2177 48.0068 37.5157 47.7585 37.5157 47.4505C37.5157 47.1426 37.2177 46.8942 37.1383 47.1326C37.1184 47.2022 36.9694 47.2519 36.8104 47.2519C36.5323 47.2519 36.5224 47.2419 36.5224 46.7552V46.2585H36.9694C37.2972 46.2585 37.4164 46.2982 37.4164 46.4075C37.4164 46.487 37.5058 46.5565 37.6151 46.5565C37.774 46.5565 37.8138 46.487 37.8138 46.2088V45.8611H36.6813C36.0257 45.8611 35.5191 45.9009 35.4793 45.9605Z" fill="#00A650"/>
<path d="M38.3795 45.9306C38.2504 46.0498 38.31 46.2584 38.459 46.2584C38.5881 46.2584 38.608 46.467 38.608 47.5001C38.608 48.563 38.5881 48.7418 38.449 48.7418C38.3596 48.7418 38.31 48.8113 38.3298 48.9107C38.3596 49.0597 38.4888 49.0994 38.9855 49.1193C39.5517 49.1491 39.6014 49.1292 39.6014 48.9405C39.6014 48.8312 39.5318 48.7418 39.4523 48.7418C39.3431 48.7418 39.3033 48.6226 39.3033 48.2451C39.3033 47.6193 39.4821 47.5895 39.8 48.1657C40.2669 49.01 40.406 49.1392 40.8133 49.1392C41.1212 49.1392 41.1908 49.1094 41.1908 48.9405C41.1908 48.8312 41.151 48.7418 41.1014 48.7418C41.0517 48.7418 40.8331 48.4935 40.6146 48.1855L40.2272 47.6392L40.5053 47.3511C40.9821 46.8842 40.853 46.2584 40.247 46.0001C39.8994 45.861 38.4987 45.8014 38.3795 45.9306ZM39.9093 46.3577C40.1378 46.4868 40.1676 46.9736 39.9391 47.1921C39.8596 47.2815 39.6808 47.3511 39.5418 47.3511C39.3232 47.3511 39.3033 47.3213 39.3033 46.8047C39.3033 46.318 39.3232 46.2584 39.512 46.2584C39.6212 46.2584 39.8 46.308 39.9093 46.3577Z" fill="#00A650"/>
<path d="M44.2695 46.0595C44.2695 46.1688 44.3391 46.2582 44.4185 46.2582C44.5477 46.2582 44.5675 46.4668 44.5675 47.4999C44.5675 48.533 44.5477 48.7417 44.4185 48.7417C44.3391 48.7417 44.2695 48.8311 44.2695 48.9403C44.2695 49.1291 44.3192 49.1489 44.9351 49.1191C45.3722 49.0993 45.6106 49.0496 45.6404 48.9602C45.6603 48.8907 45.5907 48.8013 45.4715 48.7715C45.2728 48.7218 45.2629 48.6522 45.2629 47.4999C45.2629 46.3675 45.2728 46.2781 45.4616 46.2284C45.5709 46.1986 45.6603 46.1092 45.6603 46.0198C45.6603 45.8907 45.5311 45.8609 44.9649 45.8609C44.3391 45.8609 44.2695 45.8807 44.2695 46.0595Z" fill="#00A650"/>
<path d="M46.0586 46.2582C46.0586 46.5562 46.0983 46.6556 46.2175 46.6556C46.3069 46.6556 46.3963 46.5662 46.4261 46.4569C46.4659 46.3079 46.5652 46.2582 46.8136 46.2582H47.1513V47.5C47.1513 48.5629 47.1314 48.7417 46.9924 48.7417C46.903 48.7417 46.8533 48.8112 46.8732 48.9105C46.903 49.0596 47.0122 49.0894 47.5487 49.0894C48.0851 49.0894 48.1944 49.0596 48.2242 48.9105C48.244 48.7913 48.1944 48.7417 48.0553 48.7417C47.8566 48.7417 47.8467 48.692 47.8467 47.5V46.2582H48.244C48.5718 46.2582 48.6414 46.288 48.6414 46.4569C48.6414 46.586 48.7109 46.6556 48.8401 46.6556C49.0089 46.6556 49.0387 46.586 49.0387 46.2582V45.8609H47.5487H46.0586V46.2582Z" fill="#00A650"/>
<path d="M49.4355 46.0596C49.4355 46.1688 49.5051 46.2582 49.5846 46.2582C49.7137 46.2582 49.7336 46.4668 49.7336 47.5C49.7336 48.5629 49.7137 48.7417 49.5746 48.7417C49.4852 48.7417 49.4355 48.8112 49.4554 48.9105C49.4852 49.0695 49.6243 49.0894 50.6773 49.0894H51.8693V48.7417C51.8693 48.4536 51.8296 48.3841 51.6508 48.3642C51.4918 48.3443 51.4223 48.3841 51.4223 48.4834C51.4223 48.6026 51.313 48.6423 50.9256 48.6423H50.4289V48.1456C50.4289 47.6589 50.4389 47.649 50.7269 47.649C50.8958 47.649 51.025 47.6887 51.025 47.7483C51.025 47.798 51.1144 47.8476 51.2236 47.8476C51.3925 47.8476 51.4223 47.7781 51.4223 47.4503C51.4223 47.1225 51.3925 47.0529 51.2236 47.0529C51.1144 47.0529 51.025 47.0927 51.025 47.1523C51.025 47.2019 50.8958 47.2516 50.7269 47.2516C50.4389 47.2516 50.4289 47.2417 50.4289 46.7549V46.2582H50.8759C51.2038 46.2582 51.323 46.298 51.323 46.4072C51.323 46.4867 51.4124 46.5562 51.5216 46.5562C51.6806 46.5562 51.7203 46.4867 51.7203 46.2086V45.8609H50.5779C49.5051 45.8609 49.4355 45.8708 49.4355 46.0596Z" fill="#00A650"/>
<path d="M52.2579 46.0001C52.1586 46.2484 52.2579 46.606 52.4467 46.6358C52.5659 46.6557 52.6155 46.606 52.6155 46.467C52.6155 46.2882 52.6751 46.2584 53.0129 46.2584H53.4102V47.5001C53.4102 48.5332 53.3904 48.7418 53.2612 48.7418C53.1818 48.7418 53.1122 48.8312 53.1122 48.9405C53.1122 49.1193 53.1818 49.1392 53.7579 49.1392C54.3341 49.1392 54.4036 49.1193 54.4036 48.9405C54.4036 48.8312 54.3341 48.7418 54.2546 48.7418C54.1255 48.7418 54.1056 48.5332 54.1056 47.5001V46.2584H54.4433C54.6917 46.2584 54.791 46.308 54.8308 46.457C54.8606 46.5663 54.95 46.6557 55.0394 46.6557C55.1586 46.6557 55.1983 46.5564 55.1983 46.2584V45.861H53.7579C52.5957 45.861 52.2976 45.8908 52.2579 46.0001Z" fill="#00A650"/>
<path d="M55.5938 46.0596C55.5938 46.1887 55.6633 46.2582 55.7924 46.2582C55.9812 46.2582 55.9911 46.3278 55.9911 47.5C55.9911 48.692 55.9812 48.7417 55.7825 48.7417C55.6434 48.7417 55.5938 48.7913 55.6136 48.9105C55.6434 49.0596 55.7527 49.0894 56.2891 49.0894C56.8255 49.0894 56.9348 49.0596 56.9646 48.9105C56.9845 48.8112 56.9348 48.7417 56.8454 48.7417C56.7063 48.7417 56.6865 48.5629 56.6865 47.5C56.6865 46.4668 56.7063 46.2582 56.8355 46.2582C56.9149 46.2582 56.9845 46.1688 56.9845 46.0596C56.9845 45.8807 56.9149 45.8609 56.2891 45.8609C55.6633 45.8609 55.5938 45.8807 55.5938 46.0596Z" fill="#00A650"/>
<path d="M35.5576 55.3677C35.4285 55.3975 35.2397 55.5266 35.1305 55.6657C34.7629 56.1326 34.9218 56.7088 35.4682 56.9372C36.0841 57.1955 36.7199 56.818 36.7199 56.1922C36.7199 55.626 36.1934 55.2584 35.5576 55.3677ZM36.1636 55.7154C36.3821 56.0233 36.3622 56.4505 36.1238 56.6889C35.8854 56.9273 35.8258 56.9273 35.5874 56.7584C35.3589 56.5995 35.3192 55.8942 35.5179 55.6558C35.7066 55.4273 35.9848 55.4571 36.1636 55.7154Z" fill="#00A650"/>
<path d="M37.0289 55.4869C36.9097 55.6061 36.8203 55.7253 36.8203 55.7749C36.8203 55.9538 37.1283 56.2716 37.4163 56.3908C37.6051 56.4703 37.7144 56.5796 37.6945 56.6789C37.6448 56.9273 37.3269 56.9273 37.0587 56.6789L36.8203 56.4604V56.7087C36.8203 56.9273 36.86 56.9571 37.2276 56.967C37.774 56.9968 38.0124 56.8478 38.0124 56.4902C38.0124 56.2319 37.9428 56.1624 37.5653 55.9836C37.0885 55.765 37.0289 55.5663 37.3965 55.5167C37.5256 55.4968 37.6448 55.5465 37.6746 55.6359C37.764 55.8643 38.0124 55.8345 38.0124 55.5961C38.0124 55.4769 37.9428 55.3975 37.8435 55.3975C37.7442 55.3975 37.5653 55.3677 37.4461 55.3379C37.3071 55.2981 37.168 55.3478 37.0289 55.4869Z" fill="#00A650"/>
<path d="M40.4453 55.3974C40.197 55.4272 40.0977 55.4769 40.1771 55.5266C40.3261 55.6259 40.346 56.7881 40.197 56.7881C40.1473 56.7881 40.0977 56.8279 40.0977 56.8875C40.0977 56.9371 40.2765 56.9868 40.495 56.9868C40.7136 56.9868 40.8924 56.9371 40.8924 56.8875C40.8924 56.8279 40.8526 56.7881 40.793 56.7881C40.7434 56.7881 40.6937 56.6789 40.6937 56.5398C40.6937 56.4007 40.7334 56.2915 40.793 56.2915C40.9321 56.2915 41.101 56.659 41.0314 56.8279C40.9818 56.957 41.0513 56.9868 41.3791 56.9868C41.7665 56.9868 41.9255 56.8676 41.6672 56.7583C41.5977 56.7385 41.4387 56.5398 41.3195 56.3213L41.101 55.9239L41.3195 55.7352C41.4387 55.6259 41.5778 55.5365 41.6175 55.5266C41.8758 55.4868 41.7665 55.3974 41.4586 55.3974C41.2003 55.3974 41.1109 55.4371 41.1506 55.5266C41.1705 55.5961 41.0811 55.765 40.942 55.8941L40.6937 56.1226V55.8742C40.6937 55.7252 40.7434 55.5961 40.8129 55.5762C41.0811 55.4868 40.8129 55.3477 40.4453 55.3974Z" fill="#00A650"/>
<path d="M33.4414 55.5464C33.4414 55.6557 33.5109 55.6855 33.6898 55.6358C33.9381 55.5762 33.9381 55.5862 33.9381 56.1822C33.9381 56.5199 33.8984 56.7881 33.8388 56.7881C33.7891 56.7881 33.7394 56.8279 33.7394 56.8875C33.7394 56.9371 33.9182 56.9868 34.1368 56.9868C34.3553 56.9868 34.5341 56.9371 34.5341 56.8875C34.5341 56.8279 34.4944 56.7881 34.4348 56.7881C34.3752 56.7881 34.3354 56.5199 34.3354 56.1822V55.5663L34.6335 55.6259C34.852 55.6756 34.9315 55.6557 34.9315 55.5464C34.9315 55.4272 34.7725 55.3974 34.1864 55.3974C33.5904 55.3974 33.4414 55.4272 33.4414 55.5464Z" fill="#00A650"/>
<path d="M38.2598 56.1921V56.9868H38.5876C38.7565 56.9868 38.9055 56.9371 38.9055 56.8875C38.9055 56.8279 38.8657 56.7881 38.8061 56.7881C38.7565 56.7881 38.7068 56.6491 38.7068 56.4901C38.7068 56.212 38.7366 56.1921 39.0545 56.1921C39.3723 56.1921 39.4021 56.212 39.4021 56.4901C39.4021 56.6491 39.3624 56.7881 39.3028 56.7881C39.2531 56.7881 39.2035 56.8279 39.2035 56.8875C39.2035 56.9371 39.3823 56.9868 39.6008 56.9868C39.8194 56.9868 39.9982 56.9371 39.9982 56.8875C39.9982 56.8279 39.9584 56.7881 39.8988 56.7881C39.7598 56.7881 39.7796 55.6557 39.9187 55.5166C40.0081 55.4272 39.9485 55.3974 39.6207 55.3974C39.3922 55.3974 39.2035 55.4371 39.2035 55.4968C39.2035 55.5464 39.2531 55.5961 39.3028 55.5961C39.3624 55.5961 39.4021 55.6855 39.4021 55.7948C39.4021 55.9537 39.3326 55.9934 39.0545 55.9934C38.7763 55.9934 38.7068 55.9537 38.7068 55.7948C38.7068 55.6855 38.7565 55.5961 38.8061 55.5961C38.8657 55.5961 38.9055 55.5464 38.9055 55.4968C38.9055 55.4371 38.7565 55.3974 38.5876 55.3974H38.2598V56.1921Z" fill="#00A650"/>
<path d="M41.8848 55.4968C41.8848 55.5464 41.9344 55.5961 41.9841 55.5961C42.0437 55.5961 42.0834 55.8643 42.0834 56.1921C42.0834 56.5199 42.0437 56.7881 41.9841 56.7881C41.9344 56.7881 41.8848 56.8279 41.8848 56.8875C41.8848 56.9471 42.1629 56.9868 42.5305 56.9868C43.1066 56.9868 43.1762 56.9669 43.1762 56.7881C43.1762 56.6789 43.1364 56.5895 43.0768 56.5895C43.0271 56.5895 42.9775 56.6292 42.9775 56.6888C42.9775 56.7385 42.8682 56.7881 42.7291 56.7881C42.5205 56.7881 42.4808 56.7385 42.4808 56.4901C42.4808 56.2617 42.5205 56.1921 42.6795 56.1921C42.7887 56.1921 42.8781 56.2318 42.8781 56.2915C42.8781 56.3411 42.9278 56.3908 42.9775 56.3908C43.0371 56.3908 43.0768 56.2815 43.0768 56.1424C43.0768 55.9239 43.047 55.904 42.7788 55.9537C42.5205 56.0133 42.4808 55.9934 42.4808 55.7948C42.4808 55.5961 42.5205 55.5762 42.8285 55.6259C43.0868 55.6656 43.1762 55.6458 43.1762 55.5365C43.1762 55.4272 43.0271 55.3974 42.5305 55.3974C42.1629 55.3974 41.8848 55.4371 41.8848 55.4968Z" fill="#00A650"/>
<path d="M43.3759 55.5464C43.4554 55.6458 43.4852 55.914 43.4554 56.3411C43.4156 56.957 43.4256 56.9868 43.6441 56.9868C43.7732 56.9868 43.8726 56.9371 43.8726 56.8875C43.8726 56.8279 43.8328 56.7881 43.7732 56.7881C43.7236 56.7881 43.6739 56.5497 43.6739 56.2617L43.6838 55.7451L44.2302 56.361C44.5381 56.7087 44.8362 56.9868 44.8958 56.9868C44.9752 56.9868 45.005 56.7683 44.9852 56.2915C44.9653 55.8345 44.9852 55.5961 45.0547 55.5961C45.1143 55.5961 45.164 55.5464 45.164 55.4968C45.164 55.4371 45.0448 55.3974 44.9057 55.3974C44.6871 55.3974 44.6673 55.4272 44.7567 55.5365C44.8262 55.616 44.866 55.8643 44.8461 56.0928L44.8163 56.5001L44.3891 55.9438C44.0116 55.4669 43.9222 55.3974 43.6044 55.3974C43.3064 55.3974 43.2666 55.4173 43.3759 55.5464Z" fill="#00A650"/>
<path d="M45.2617 55.5464C45.2617 55.6656 45.3313 55.6855 45.52 55.6358L45.7783 55.5663L45.7385 56.2815L45.6988 56.9868H46.0266C46.2054 56.9868 46.3544 56.9371 46.3544 56.8875C46.3544 56.8279 46.3147 56.7881 46.2551 56.7881C46.1955 56.7881 46.1558 56.5199 46.1558 56.1822V55.5663L46.4538 55.6259C46.6723 55.6756 46.7518 55.6557 46.7518 55.5464C46.7518 55.4272 46.5928 55.3974 46.0068 55.3974C45.4107 55.3974 45.2617 55.4272 45.2617 55.5464Z" fill="#00A650"/>
<path d="M37.0669 58.7154C36.7987 58.9836 36.8086 59.1723 37.0867 59.1723C37.1662 59.1723 37.2556 59.0829 37.2854 58.9836C37.3649 58.6756 37.6033 58.6458 37.7324 58.924C37.8417 59.1723 37.7225 59.6392 37.4742 59.8975C37.4146 59.967 37.2357 60.1856 37.0867 60.3842L36.8086 60.7617H37.5536H38.3086V60.4637C38.3086 60.2948 38.2689 60.1657 38.2093 60.1657C38.1596 60.1657 38.1099 60.2054 38.1099 60.265C38.1099 60.3147 37.9808 60.3644 37.8119 60.3644C37.4444 60.3644 37.4344 60.3048 37.802 59.977C38.5073 59.3313 38.4576 58.6359 37.6828 58.5068C37.3947 58.467 37.2854 58.4968 37.0669 58.7154Z" fill="#00A650"/>
<path d="M39.0445 58.5465C38.7564 58.7651 38.6074 59.1425 38.6074 59.6988C38.6074 60.2055 38.6472 60.3147 38.8955 60.573C39.0544 60.7319 39.2631 60.8611 39.3525 60.8611C39.5611 60.8611 39.9982 60.424 40.0081 60.1955C40.018 60.0962 40.0379 59.9074 40.0478 59.7684C40.0876 59.4406 39.9286 58.8247 39.7697 58.6955C39.5909 58.5465 39.1736 58.467 39.0445 58.5465ZM39.5114 59.0929C39.5313 59.679 39.4915 60.5035 39.4319 60.6028C39.4021 60.6525 39.3127 60.6127 39.2332 60.5134C39.1041 60.3247 39.0445 58.9637 39.1736 58.8445C39.3425 58.6757 39.5015 58.7949 39.5114 59.0929Z" fill="#00A650"/>
<path d="M40.5355 58.7054C40.3765 58.8445 40.297 58.9935 40.3368 59.0531C40.446 59.2419 40.7043 59.1922 40.7639 58.9836C40.8434 58.6756 41.0818 58.6458 41.211 58.924C41.3202 59.1723 41.201 59.6392 40.9527 59.8975C40.8931 59.967 40.7143 60.1856 40.5653 60.3842L40.2871 60.7617H41.0321H41.7871V60.4637C41.7871 60.1756 41.648 60.0465 41.5686 60.275C41.5487 60.3346 41.4096 60.3644 41.2606 60.3445L40.9825 60.3147L41.3898 59.8279C41.8566 59.2717 41.8864 58.9736 41.5288 58.6856C41.1811 58.4173 40.8732 58.4273 40.5355 58.7054Z" fill="#00A650"/>
<path d="M42.4819 58.8246C42.2733 59.0432 42.2832 59.1226 42.5117 59.0829C42.5514 59.0829 42.5812 59.4107 42.5812 59.818C42.5812 60.414 42.5514 60.563 42.4322 60.563C42.3527 60.563 42.2832 60.6028 42.2832 60.6624C42.2832 60.722 42.5415 60.7617 42.8594 60.7617C43.3461 60.7518 43.4057 60.7419 43.2567 60.6226C43.1077 60.5134 43.0779 60.3246 43.0779 59.5299C43.0779 58.6756 43.058 58.5763 42.8991 58.5763C42.7998 58.5763 42.611 58.6856 42.4819 58.8246Z" fill="#00A650"/>
</g>
<defs>
<clipPath id="clip0_331_13021">
<rect width="60" height="60" fill="white" transform="translate(10 10)"/>
</clipPath>
</defs>
</svg>
