<svg width="400" height="220" viewBox="0 0 400 220" fill="none" xmlns="http://www.w3.org/2000/svg">
<g clip-path="url(#clip0_106_1284)">
<circle cx="200" cy="154" r="154" fill="url(#paint0_linear_106_1284)"/>
<path fill-rule="evenodd" clip-rule="evenodd" d="M164.073 68.0436C164.032 68.0879 160.472 68.1433 156.163 68.1668C145.796 68.2231 145.821 68.2211 143.079 69.2233C142.47 69.4457 140.998 70.27 140.547 70.6408C137.73 72.9561 136.423 74.6189 134.962 77.745C134.272 79.2204 134.231 79.3174 133.803 80.4977C133.174 82.231 132.695 84.488 132.431 86.9703C132.344 87.7887 132.205 88.6705 132.124 88.9298C131.937 89.524 131.972 95.2285 132.163 95.2285C132.239 95.2285 132.392 95.4462 132.503 95.7121C132.752 96.3061 133.392 97.0044 133.995 97.3405C134.617 97.6869 137.67 97.9004 143.818 98.0277L148.771 98.13L148.788 98.5764C148.798 98.8219 148.855 116.164 148.915 137.115C148.975 158.065 149.078 175.776 149.144 176.471C149.31 178.213 149.491 178.95 150.045 180.137C151.657 183.597 154.297 186.036 157.652 187.165C159.031 187.629 160.249 187.777 162.697 187.778C163.932 187.779 164.976 187.834 165.017 187.899C165.103 188.04 224.071 188.03 224.396 187.889C224.518 187.836 226.348 187.767 228.462 187.736C232.078 187.682 232.372 187.657 233.415 187.309C234.025 187.106 234.657 186.865 234.819 186.775C234.982 186.685 235.215 186.57 235.337 186.52C235.581 186.42 235.832 186.269 236.794 185.644C238.32 184.654 240.603 182.049 241.183 180.637C241.233 180.515 241.397 180.146 241.546 179.819C242.256 178.259 242.296 177.881 242.447 171.263C242.526 167.785 242.572 160.622 242.549 155.344C242.51 146.333 242.492 145.746 242.248 145.698C242.072 145.664 240.716 146.922 238.034 149.605L234.08 153.562L234.004 165.128L233.929 176.694L233.597 177.29C233.131 178.124 232.57 178.689 232.108 178.788C231.892 178.835 231.548 178.952 231.345 179.048C230.863 179.277 163.193 179.383 161.264 179.158C159.337 178.933 159.003 178.795 158.281 177.927L157.642 177.16L157.538 170.157C157.48 166.305 157.367 145.879 157.287 124.765C157.13 83.5648 157.144 84.216 156.397 82.2088C155.396 79.5201 153.95 77.8554 152.057 77.2102C151.293 76.9498 151.292 76.9491 151.731 76.8263C151.974 76.7587 168.272 76.7034 187.951 76.7034C222.107 76.7034 223.774 76.7157 224.692 76.9743C225.856 77.3024 228.442 78.5577 229.053 79.0917C232.448 82.0541 233.647 84.3374 233.934 88.3839C233.984 89.0795 234.037 94.2152 234.052 99.7965C234.082 110.538 234.077 110.47 234.75 110.168C234.92 110.091 236.791 108.291 238.907 106.166L242.756 102.303L242.591 95.9014C242.322 85.4346 242.172 84.1616 240.872 81.2936C240.755 81.0357 240.66 80.7511 240.66 80.6612C240.66 80.5712 240.6 80.4977 240.528 80.4977C240.455 80.4977 240.355 80.3349 240.306 80.136C240.181 79.6368 239.273 78.1065 238.336 76.8153C237.482 75.6385 235.69 73.7535 234.524 72.8033C233.609 72.0587 231.48 70.6771 231.246 70.6771C231.152 70.6771 231.052 70.6255 231.025 70.5624C230.968 70.4315 228.59 69.338 228.361 69.338C228.278 69.338 228.001 69.2447 227.745 69.1306C227.154 68.8675 225.991 68.5049 225.134 68.3166C224.437 68.1638 164.211 67.8944 164.073 68.0436ZM253.596 98.4653C253.271 98.6004 252.938 98.7655 252.857 98.8322C252.776 98.8989 252.264 99.286 251.721 99.6925C251.177 100.099 249.93 101.21 248.949 102.162C247.405 103.66 247.165 103.957 247.165 104.365C247.165 104.79 247.88 105.555 254.321 112.011C258.801 116.502 261.584 119.185 261.762 119.185C261.932 119.185 262.757 118.448 263.809 117.358C266.421 114.652 266.72 114.297 267.352 113.159C267.894 112.183 267.934 112.026 267.988 110.665C268.021 109.839 267.983 109.133 267.9 109.028C267.82 108.927 267.674 108.593 267.576 108.287C267.27 107.329 266.134 105.966 263.143 102.966C259.815 99.6285 258.784 98.7767 257.666 98.4425C256.599 98.1236 254.389 98.136 253.596 98.4653ZM181.769 102.519C181.06 102.738 179.42 104.137 176.123 107.336C175.229 108.204 174.463 108.914 174.422 108.916C174.381 108.917 173.99 108.624 173.555 108.264C171.709 106.74 170.007 106.357 168.461 107.116C167.133 107.769 166.408 108.781 166.109 110.402C165.904 111.511 166.138 112.193 167.214 113.623C168.288 115.052 170.863 117.604 172.004 118.372C173.048 119.074 173.382 119.185 174.467 119.185C175.765 119.185 176.222 118.936 178.225 117.144C179.803 115.731 184.517 111.037 185.307 110.09C186.795 108.309 186.916 108.047 186.916 106.611C186.916 105.668 186.845 105.276 186.575 104.723C186.175 103.907 185.501 103.196 184.772 102.824C184.169 102.515 182.372 102.333 181.769 102.519ZM195.75 106.826C194.529 106.908 194.014 107.004 193.816 107.184C193.668 107.319 193.497 107.43 193.437 107.43C193.216 107.43 192.264 108.564 192 109.141C191.585 110.048 191.621 111.705 192.075 112.607C192.475 113.4 193.003 113.979 193.755 114.447C194.495 114.907 196.177 114.972 207.911 114.995C219.33 115.018 222.419 114.908 223.303 114.451C224.019 114.08 224.566 113.501 225 112.654C225.451 111.774 225.452 110.019 225.003 109.027C224.581 108.094 223.367 107.046 222.571 106.927C221.641 106.787 197.656 106.697 195.75 106.826ZM226.725 124.676C217.638 133.833 210.203 141.358 210.203 141.398C210.203 141.438 209.899 141.78 209.529 142.159C208.789 142.913 207.747 144.907 205.592 149.688C205.426 150.056 205.102 150.759 204.874 151.25C204.645 151.741 204.315 152.478 204.142 152.887C203.969 153.296 203.734 153.832 203.62 154.077C202.803 155.841 202.162 157.279 201.563 158.69C201.181 159.59 200.809 160.461 200.735 160.624C199.904 162.466 199.877 162.972 200.542 164.26C201.377 165.882 202.734 166.573 204.39 166.223C204.863 166.122 205.482 165.951 205.767 165.842C207.096 165.33 208.637 164.693 209.389 164.343C210.627 163.768 211.836 163.228 211.891 163.228C211.924 163.228 212.672 162.887 213.553 162.471C214.435 162.054 215.654 161.477 216.264 161.188C216.874 160.9 218.326 160.203 219.49 159.64C220.654 159.076 221.669 158.616 221.745 158.616C221.821 158.616 221.883 158.554 221.883 158.479C221.883 158.403 222.07 158.3 222.299 158.25C222.528 158.199 223.043 157.886 223.445 157.554C224.797 156.435 230.291 151.019 244.178 137.115C251.779 129.504 258.089 123.188 258.2 123.08C258.723 122.57 258.504 122.308 252.882 116.715C244.373 108.25 244.135 108.025 243.659 108.025C243.309 108.026 240.754 110.538 226.725 124.676ZM181.742 123.97C180.913 124.282 179.528 125.474 176.061 128.856C174.301 130.573 174.62 130.5 173.289 129.491C171.465 128.107 170.254 127.813 168.752 128.387C166.67 129.183 165.445 132.026 166.398 133.852C167.042 135.086 169.582 137.899 171.318 139.3C172.646 140.371 173.358 140.68 174.497 140.68C175.376 140.681 175.627 140.619 176.164 140.27C177.149 139.629 178.978 137.954 181.965 134.957C186.541 130.365 187.078 129.59 186.956 127.761C186.909 127.064 186.772 126.484 186.557 126.074C186.166 125.329 185.235 124.447 184.523 124.148C183.84 123.861 182.293 123.761 181.742 123.97ZM197.783 128.114C196.116 128.164 194.536 128.28 194.272 128.371C193.624 128.596 192.386 129.8 192.02 130.563C191.814 130.99 191.721 131.484 191.721 132.155C191.721 133.791 192.25 134.838 193.512 135.701C194.485 136.367 195.017 136.415 202.777 136.535L208.584 136.625L212.794 132.384C215.109 130.052 217.004 128.103 217.004 128.054C217.004 127.943 201.938 127.99 197.783 128.114ZM181.432 145.585C180.929 145.805 179.393 147.099 177.678 148.746C175.108 151.213 174.507 151.771 174.415 151.771C174.362 151.771 174.154 151.62 173.953 151.436C172.765 150.348 171.096 149.539 170.04 149.539C169.178 149.539 168.083 150.067 167.328 150.848C166.939 151.25 166.571 151.739 166.51 151.935C166.449 152.131 166.325 152.34 166.234 152.398C166.138 152.46 166.069 152.953 166.069 153.588C166.069 154.541 166.129 154.778 166.559 155.542C167.118 156.535 167.4 156.867 169.544 159.06C172.059 161.632 172.73 162.038 174.468 162.038C175.949 162.038 176.523 161.707 178.709 159.592C182.005 156.402 185.541 152.742 186.403 151.628C186.911 150.971 186.916 150.949 186.916 149.47C186.916 148.056 186.893 147.942 186.472 147.314C185.929 146.506 184.956 145.736 184.214 145.528C183.45 145.315 181.98 145.345 181.432 145.585ZM214.714 148.619C217.53 151.412 219.535 153.577 219.476 153.76C219.414 153.951 217.481 154.988 216.085 155.579C215.574 155.795 214.557 156.255 213.825 156.601C212.111 157.411 211.714 157.574 211.456 157.574C211.237 157.574 208.872 155.326 208.872 155.118C208.872 155.052 209.045 154.624 209.257 154.166C209.722 153.158 210.311 151.833 210.95 150.357C211.127 149.948 211.464 149.222 211.698 148.743C211.933 148.264 212.125 147.808 212.125 147.729C212.125 147.513 212.621 146.871 212.792 146.865C212.875 146.863 213.74 147.652 214.714 148.619Z" fill="#FBFBFB"/>
</g>
<defs>
<linearGradient id="paint0_linear_106_1284" x1="46" y1="196.607" x2="364.807" y2="148.246" gradientUnits="userSpaceOnUse">
<stop stop-color="#00A650"/>
<stop offset="1" stop-color="#0FDB71"/>
</linearGradient>
<clipPath id="clip0_106_1284">
<rect width="400" height="220" fill="white"/>
</clipPath>
</defs>
</svg>
