<svg width="24" height="25" viewBox="0 0 24 25" fill="none" xmlns="http://www.w3.org/2000/svg">
<path d="M4.35073 3.30025C3.50073 3.87525 2.92573 4.55025 2.42573 5.50025C1.80073 6.70025 1.72573 7.07525 1.82573 8.37525C2.07573 11.6752 3.65073 14.6502 6.75073 17.7502C9.85073 20.8502 12.8257 22.4252 16.1257 22.6752C17.4257 22.7752 17.8007 22.7002 19.0007 22.0752C20.4257 21.3252 22.0007 19.4252 22.0007 18.4752C22.0007 17.2752 17.7507 13.7502 16.3257 13.7502C15.6257 13.7502 15.4007 13.9252 14.7007 15.0002C14.2507 15.6752 13.7007 16.2502 13.4507 16.2502C12.5757 16.2502 9.37573 13.2502 8.50073 11.6002C8.15073 10.9752 8.17573 10.9002 8.75073 10.5252C10.1257 9.62525 10.8257 8.85025 10.8257 8.15025C10.8257 6.80025 7.17573 2.50025 6.05073 2.50025C5.77573 2.50025 5.02573 2.87525 4.35073 3.30025Z" fill="url(#paint0_linear_170_4688)"/>
<defs>
<linearGradient id="paint0_linear_170_4688" x1="1.78906" y1="9.81013" x2="22.7099" y2="12.9837" gradientUnits="userSpaceOnUse">
<stop stop-color="#00A650"/>
<stop offset="1" stop-color="#0FDB71"/>
</linearGradient>
</defs>
</svg>
