<svg width="64" height="64" viewBox="0 0 64 64" fill="none" xmlns="http://www.w3.org/2000/svg">
<path d="M29.8875 0.125C26.0125 0.9375 22.95 3.7625 21.725 7.625C21.475 8.45 21.4375 8.8125 21.4375 10.625C21.4375 12.4375 21.475 12.8 21.725 13.625C22.85 17.1875 25.4375 19.775 29 20.9C29.825 21.15 30.1875 21.1875 32 21.1875C33.8125 21.1875 34.175 21.15 35 20.9C38.5625 19.775 41.15 17.1875 42.275 13.625C42.525 12.8 42.5625 12.4375 42.5625 10.625C42.5625 8.8125 42.525 8.45 42.275 7.625C41.1625 4.0875 38.6 1.5125 35.0625 0.375C34.35 0.15 33.8375 0.0874996 32.3125 0.0499992C31.2875 0.0249996 30.1875 0.0625 29.8875 0.125Z" fill="#1D1D1D"/>
<path d="M23.001 23.1124C20.7135 24.1374 17.0385 26.6499 17.4635 26.9124C17.526 26.9499 20.8135 28.1999 24.7885 29.6874L32.026 32.3999L39.2885 29.6749C43.2885 28.1874 46.5885 26.9374 46.626 26.8999C46.751 26.7999 45.451 25.7374 44.1635 24.8624C43.001 24.0874 40.801 22.9374 40.051 22.6999C39.8635 22.6374 39.551 22.7499 39.026 23.0624C37.3635 24.0374 35.201 24.6999 33.226 24.8499C30.2635 25.0749 27.551 24.4999 25.0885 23.1124C24.6135 22.8374 24.1885 22.6249 24.151 22.6374C24.101 22.6374 23.5885 22.8499 23.001 23.1124Z" fill="#1D1D1D"/>
<path d="M11.125 29.1C10.8875 29.2125 10.5625 29.5 10.4125 29.7375C10.1375 30.1375 10.125 30.275 10.125 32.575V34.9875L10.85 35.0625C12.6125 35.25 13.575 35.675 14.65 36.7625C16.05 38.1625 16.3625 39.325 16.3625 43.125C16.3625 46.925 16.05 48.0875 14.65 49.4875C13.575 50.575 12.6125 51 10.85 51.1875L10.125 51.2625V53.5375C10.125 55.575 10.15 55.85 10.375 56.2125C10.5 56.4375 10.7375 56.7 10.9 56.8C11.1875 56.975 29.8125 64 30.025 64C30.075 64 30.125 57.5875 30.125 49.7625V35.525L21.2375 32.2C16.35 30.375 12.175 28.875 11.9625 28.875C11.7375 28.875 11.3625 28.975 11.125 29.1Z" fill="#1D1D1D"/>
<path d="M42.725 32.225L33.875 35.55V49.775C33.875 57.6 33.925 64 33.975 64C34.1875 64 52.8125 56.975 53.1 56.8C53.2625 56.7 53.5 56.4375 53.625 56.2125C53.85 55.85 53.875 55.575 53.875 53.5375V51.2625L53.1625 51.1875C51.3875 51 50.425 50.575 49.35 49.4875C47.95 48.0875 47.6375 46.925 47.6375 43.125C47.6375 39.325 47.95 38.1625 49.35 36.7625C50.425 35.675 51.3875 35.25 53.1625 35.0625L53.875 34.9875V32.575C53.875 30.275 53.8625 30.1375 53.5875 29.7375C53.25 29.225 52.5875 28.875 52 28.8875C51.75 28.8875 47.75 30.325 42.725 32.225Z" fill="#1D1D1D"/>
<path d="M7.97639 38.9376C6.78889 39.3751 5.70139 40.4876 5.30139 41.6626C5.00139 42.5626 5.10139 44.2501 5.50139 45.0626C5.88889 45.8626 6.76389 46.7376 7.56389 47.1251C8.10139 47.4001 8.40139 47.4376 9.75139 47.4751C11.5139 47.5251 11.9389 47.4001 12.3764 46.6876C12.6139 46.3126 12.6264 46.0501 12.6264 43.1126C12.6264 40.2126 12.6014 39.9126 12.3889 39.5751C11.9139 38.8626 11.5889 38.7501 9.93889 38.7626C9.00139 38.7626 8.26389 38.8376 7.97639 38.9376Z" fill="#1D1D1D"/>
<path d="M52.2 38.9876C51.4 39.5251 51.375 39.6126 51.375 43.1126C51.375 46.0501 51.3875 46.3126 51.625 46.6876C52.0625 47.4001 52.4875 47.5376 54.25 47.4751C55.6 47.4376 55.9 47.3876 56.4375 47.1251C57.2375 46.7376 58.1125 45.8626 58.5 45.0626C58.775 44.5251 58.8125 44.2626 58.8125 43.1251C58.8125 41.9876 58.775 41.7251 58.5 41.1876C58.1125 40.3876 57.2375 39.5126 56.4375 39.1251C55.8875 38.8501 55.6125 38.8126 54.1875 38.7751C52.75 38.7501 52.525 38.7751 52.2 38.9876Z" fill="#1D1D1D"/>
</svg>
