<svg width="400" height="220" viewBox="0 0 400 220" fill="none" xmlns="http://www.w3.org/2000/svg">
<g clip-path="url(#clip0_106_1283)">
<circle cx="200" cy="154" r="154" fill="url(#paint0_linear_106_1283)"/>
<path fill-rule="evenodd" clip-rule="evenodd" d="M159.899 73.4021C159.243 73.7002 158.899 74.0464 158.556 74.7546C158.124 75.6457 158.095 76.032 158.095 80.7972V85.8876H152.898C148.023 85.8876 147.641 85.9161 146.748 86.3484C146.04 86.6912 145.694 87.0353 145.395 87.6917C144.833 88.931 144.886 89.7348 145.606 90.8425C146.417 92.0924 165.517 111.1 166.412 111.549C166.995 111.841 168.029 111.894 173.183 111.894H179.266L188.292 120.944C193.256 125.922 197.747 130.274 198.273 130.616C199.421 131.363 200.385 131.413 201.507 130.783C202.405 130.278 203.227 129.014 203.227 128.139C203.227 126.733 202.584 125.993 193.224 116.619L183.885 107.267V101.187C183.885 95.9546 183.835 95.0124 183.53 94.4203C183.083 93.5552 163.902 74.1307 162.848 73.4764C161.906 72.8914 161.07 72.8703 159.899 73.4021ZM194.416 73.3326C189.647 73.9014 184.526 75.2273 180.001 77.0647C178.553 77.6525 177.289 78.2124 177.192 78.3091C177.096 78.4059 179.215 80.6762 181.901 83.3542L186.786 88.2236L189.591 87.4991C193.583 86.4681 195.696 86.2153 200.218 86.2278C211.505 86.2592 221.554 90.4462 229.561 98.4541C235.982 104.875 239.787 112.337 241.408 121.683C241.922 124.645 241.922 131.382 241.408 134.345C239.787 143.691 235.982 151.153 229.561 157.573C223.141 163.994 215.679 167.8 206.334 169.422C203.372 169.935 196.635 169.935 193.673 169.422C184.328 167.8 176.866 163.994 170.446 157.573C162.438 149.566 158.252 139.516 158.22 128.229C158.208 123.706 158.461 121.592 159.492 117.6L160.216 114.796L155.347 109.91C152.669 107.224 150.399 105.104 150.302 105.201C149.941 105.563 147.963 110.733 147.262 113.149C144.869 121.396 144.395 128.811 145.744 136.933C149.284 158.262 165.472 175.934 186.356 181.272C209.936 187.298 234.37 177.234 247.106 156.248C261.712 132.183 255.545 101.066 232.78 83.9547C221.874 75.7571 207.487 71.7738 194.416 73.3326ZM197.317 99.1436C195.928 99.3179 193.163 99.907 191.783 100.323L190.332 100.76V102.729V104.699L193.973 108.335L197.614 111.971L200.259 112.017C202.977 112.064 204.093 112.284 206.236 113.192C210.826 115.137 214.467 119.428 215.712 124.36C215.881 125.029 216.01 126.616 216.01 128.014C216.01 129.412 215.881 130.999 215.712 131.668C214.454 136.65 210.832 140.888 206.129 142.879C204.046 143.76 202.647 144.022 200.004 144.022C198.606 144.022 197.019 143.892 196.35 143.723C191.419 142.478 187.128 138.837 185.183 134.247C184.274 132.104 184.055 130.988 184.008 128.27L183.962 125.624L180.326 121.983L176.69 118.342H174.72H172.751L172.316 119.793C170.288 126.544 170.671 133.075 173.479 139.611C176.248 146.056 181.963 151.772 188.406 154.539C196.014 157.807 203.993 157.807 211.601 154.539C214.819 153.157 217.734 151.146 220.434 148.446C225.342 143.537 228.152 137.592 228.84 130.661C230.193 117.022 221.327 104.06 207.975 100.156C204.858 99.245 200.106 98.7937 197.317 99.1436Z" fill="#FBFBFB"/>
</g>
<defs>
<linearGradient id="paint0_linear_106_1283" x1="46" y1="196.607" x2="364.807" y2="148.246" gradientUnits="userSpaceOnUse">
<stop stop-color="#00A650"/>
<stop offset="1" stop-color="#0FDB71"/>
</linearGradient>
<clipPath id="clip0_106_1283">
<rect width="400" height="220" fill="white"/>
</clipPath>
</defs>
</svg>
