<svg width="64" height="64" viewBox="0 0 64 64" fill="none" xmlns="http://www.w3.org/2000/svg">
<path d="M19.75 3.4375C17.1375 4.0125 14.875 6.175 14.1875 8.75C14.05 9.2625 14 10.2125 14 12.3875C14 15.2375 14.0125 15.35 14.275 15.75C14.7625 16.4625 15.175 16.6875 16 16.6875C16.8 16.675 17.1875 16.475 17.675 15.825C17.9125 15.5125 17.9375 15.25 18.0125 12.8375C18.0875 9.6625 18.175 9.3125 19.075 8.4125C20.1875 7.2875 18.7625 7.3625 37.6375 7.4L54.1875 7.4375L54.7 7.7125C55.3625 8.0625 55.9375 8.6375 56.2875 9.3L56.5625 9.8125L56.6 18.3625C56.6375 28.2375 56.675 27.8375 55.5875 28.925C54.7375 29.775 54.275 29.9 51.8125 29.9875C50.0125 30.05 49.775 30.0875 49.425 30.3375C48.325 31.125 48.3875 33.025 49.5375 33.7375C49.9375 33.975 50.15 34 52.2125 34C53.8 34 54.6625 33.95 55.1875 33.8125C57.85 33.125 60 30.8875 60.5625 28.1875C60.8375 26.9 60.8375 10.4875 60.5625 9.1875C60.025 6.5875 58.225 4.5625 55.6625 3.6625L54.6875 3.3125L37.625 3.2875C23.3375 3.275 20.425 3.3 19.75 3.4375Z" fill="#fff"/>
<path d="M25.4886 14.3C24.3261 15.0875 24.3636 17 25.5386 17.7375C25.9636 18 26.0011 18 37.3261 18C48.4386 18 48.7011 17.9875 49.1011 17.75C49.7011 17.375 50.0011 16.8125 50.0011 16C50.0011 15.1875 49.7011 14.625 49.1011 14.25C48.7011 14.0125 48.4386 14 37.3136 14H25.9386L25.4886 14.3Z" fill="#fff"/>
<path d="M12.0625 21.425C10.4875 21.8125 9.2125 22.85 8.4875 24.3125C8.075 25.1625 8.0625 25.225 8.0625 26.6875C8.0625 28.1375 8.075 28.2125 8.4875 29.025C9 30.05 10.025 31.0625 11.0625 31.575C11.7625 31.9125 11.9125 31.9375 13.3125 31.9375C14.775 31.9375 14.8375 31.925 15.6875 31.5125C19.475 29.6375 19.775 24.4125 16.2125 22.1125C15.0375 21.35 13.4375 21.0875 12.0625 21.425Z" fill="#fff"/>
<path d="M25.4886 22.3C24.3261 23.0875 24.3636 25 25.5386 25.7375C25.9636 26 26.0886 26 32.0011 26C37.9136 26 38.0386 26 38.4636 25.7375C39.6511 25 39.6511 23 38.4636 22.2625C38.0386 22 37.9136 22 31.9886 22H25.9386L25.4886 22.3Z" fill="#fff"/>
<path d="M44.3008 22.2375C44.0758 22.375 43.7633 22.6625 43.6008 22.9C43.4258 23.125 41.0258 26.8375 38.2633 31.1375L33.2383 38.9625L32.6133 38.8625C31.4508 38.675 30.9633 38.8625 26.0758 41.425L21.4383 43.8625L21.3633 42.4625C21.2883 40.9125 21.0758 40.1375 20.4008 38.825C18.4258 35.025 13.5883 33.5375 9.65078 35.5C7.81328 36.425 6.35078 38.1375 5.66328 40.1625L5.31328 41.1875L5.27578 49.9625L5.23828 58.75H13.3133H21.3758V55.65V52.55L21.9758 52.4C22.8633 52.1625 34.2758 46.0625 34.8258 45.525C35.4133 44.95 35.8758 43.95 35.9633 43.0375C36.0383 42.3375 36.2508 41.9875 41.5008 33.8C44.5133 29.1125 47.0633 25.1125 47.1758 24.9C47.6133 24.0375 47.2758 22.7625 46.4633 22.2625C45.9008 21.9125 44.8383 21.9 44.3008 22.2375Z" fill="#fff"/>
</svg>
